ISO-10303-21;
HEADER;
FILE_DESCRIPTION (( 'STEP AP203' ),
    '1' );
FILE_NAME ('DroneArmA.STEP',
    '2026-08-04T17:52:38',
    ( '' ),
    ( '' ),
    'SwSTEP 2.0',
    'SolidWorks 2026',
    '' );
FILE_SCHEMA (( 'CONFIG_CONTROL_DESIGN' ));
ENDSEC;

DATA;
#1 = ORIENTED_EDGE ( 'NONE', *, *, #428, .F. ) ;
#2 = ADVANCED_FACE ( 'NONE', ( #438 ), #647, .T. ) ;
#3 = DIRECTION ( 'NONE',  ( -0.000000000000000000, 3.491481338843133355E-15, -1.000000000000000000 ) ) ;
#4 = CARTESIAN_POINT ( 'NONE',  ( -55.45454545454549589, 305.0206611570247901, -2.599999999998934719 ) ) ;
#5 = VERTEX_POINT ( 'NONE', #598 ) ;
#6 = APPROVAL_ROLE ( '' ) ;
#7 = CARTESIAN_POINT ( 'NONE',  ( -59.56602882894215156, 4.849868191893685676, -2.499999999999983125 ) ) ;
#8 = DIRECTION ( 'NONE',  ( -0.000000000000000000, 3.491481338843133355E-15, -1.000000000000000000 ) ) ;
#9 = VERTEX_POINT ( 'NONE', #602 ) ;
#10 = ORIENTED_EDGE ( 'NONE', *, *, #579, .T. ) ;
#11 = APPLICATION_PROTOCOL_DEFINITION ( 'international standard', 'config_control_design', 1994, #213 ) ;
#12 = PLANE ( 'NONE',  #107 ) ;
#13 = CARTESIAN_POINT ( 'NONE',  ( 0.000000000000000000, 9.077851480992146724E-15, -2.600000000000000089 ) ) ;
#14 = EDGE_CURVE ( 'NONE', #333, #278, #28, .T. ) ;
#15 = CARTESIAN_POINT ( 'NONE',  ( -49.22359359558506497, 305.0206611570239374, 252.5000000000010516 ) ) ;
#16 = DIRECTION ( 'NONE',  ( -0.000000000000000000, 3.491481338843133355E-15, -1.000000000000000000 ) ) ;
#17 = VECTOR ( 'NONE', #287, 1000.000000000000000 ) ;
#18 = CARTESIAN_POINT ( 'NONE',  ( 6.123233995736766282E-16, -5.000000000000059508, 16.84213562373093254 ) ) ;
#19 = APPROVAL_PERSON_ORGANIZATION ( #173, #444, #124 ) ;
#20 = CARTESIAN_POINT ( 'NONE',  ( -109.9525020700214100, 9.991218255120045910, -9.988125517505322293 ) ) ;
#21 = CARTESIAN_POINT ( 'NONE',  ( -100.9775262321457490, -8.336333618498812825, -7.744381558036430135 ) ) ;
#22 = AXIS2_PLACEMENT_3D ( 'NONE', #630, #120, #375 ) ;
#23 = EDGE_CURVE ( 'NONE', #333, #586, #61, .T. ) ;
#24 = FACE_OUTER_BOUND ( 'NONE', #568, .T. ) ;
#25 = ORIENTED_EDGE ( 'NONE', *, *, #229, .F. ) ;
#26 = DIRECTION ( 'NONE',  ( 0.000000000000000000, -1.000000000000000000, -3.491481338843133750E-15 ) ) ;
#27 = AXIS2_PLACEMENT_3D ( 'NONE', #250, #389, #231 ) ;
#28 = LINE ( 'NONE', #342, #295 ) ;
#29 = VERTEX_POINT ( 'NONE', #244 ) ;
#30 = CARTESIAN_POINT ( 'NONE',  ( -49.22359359558506497, -5.064710457543650790, 2.499999999999982236 ) ) ;
#31 = AXIS2_PLACEMENT_3D ( 'NONE', #268, #498, #208 ) ;
#32 = DIRECTION ( 'NONE',  ( -0.000000000000000000, 1.000000000000000000, 3.491481338843133355E-15 ) ) ;
#33 = EDGE_CURVE ( 'NONE', #456, #232, #35, .T. ) ;
#34 =( BOUNDED_CURVE ( )  B_SPLINE_CURVE ( 3, ( #557, #257, #43, #105 ),
 .UNSPECIFIED., .F., .F. ) 
 B_SPLINE_CURVE_WITH_KNOTS ( ( 4, 4 ),
 ( 1.753135734551747094, 1.753618730515459578 ),
 .UNSPECIFIED. ) 
 CURVE ( )  GEOMETRIC_REPRESENTATION_ITEM ( )  RATIONAL_B_SPLINE_CURVE ( ( 1.000000000000000000, 0.9999999805595749525, 0.9999999805595749525, 1.000000000000000000 ) ) 
 REPRESENTATION_ITEM ( '' )  );
#35 = LINE ( 'NONE', #187, #354 ) ;
#36 = DIRECTION ( 'NONE',  ( 0.000000000000000000, 1.000000000000000000, 3.469446951953614189E-15 ) ) ;
#37 = LOCAL_TIME ( 10, 52, 38.00000000000000000, #266 ) ;
#38 = VERTEX_POINT ( 'NONE', #552 ) ;
#39 = CARTESIAN_POINT ( 'NONE',  ( -89.99525858839577097, 6.822542832745945418, 5.637020107689128423 ) ) ;
#40 = CARTESIAN_POINT ( 'NONE',  ( -49.22359359558495129, 5.064710457543650790, -2.499999999999982236 ) ) ;
#41 = AXIS2_PLACEMENT_3D ( 'NONE', #62, #478, #331 ) ;
#42 = DIRECTION ( 'NONE',  ( 0.000000000000000000, -3.491481338843133355E-15, 1.000000000000000000 ) ) ;
#43 = CARTESIAN_POINT ( 'NONE',  ( -109.9525020700217510, -9.991218255120097425, 9.988125517505402229 ) ) ;
#44 = AXIS2_PLACEMENT_3D ( 'NONE', #135, #42, #450 ) ;
#45 = FACE_OUTER_BOUND ( 'NONE', #51, .T. ) ;
#46 = SECURITY_CLASSIFICATION ( '', '', #528 ) ;
#47 = CARTESIAN_POINT ( 'NONE',  ( -109.9050020206544218, -9.982447981150036398, -9.976250505163637428 ) ) ;
#48 = ORIENTED_EDGE ( 'NONE', *, *, #643, .F. ) ;
#49 = ORIENTED_EDGE ( 'NONE', *, *, #433, .F. ) ;
#50 = CARTESIAN_POINT ( 'NONE',  ( -110.0000000000000000, 10.00000000000010125, -10.00000000000003020 ) ) ;
#51 = EDGE_LOOP ( 'NONE', ( #118, #319, #542, #324 ) ) ;
#52 = DATE_TIME_ROLE ( 'creation_date' ) ;
#53 = DIRECTION ( 'NONE',  ( 0.000000000000000000, -1.000000000000000000, -3.491481338843133355E-15 ) ) ;
#54 = CYLINDRICAL_SURFACE ( 'NONE', #234, 5.000000000000000000 ) ;
#55 = EDGE_LOOP ( 'NONE', ( #48, #315 ) ) ;
#56 = EDGE_CURVE ( 'NONE', #5, #152, #628, .T. ) ;
#57 = DIRECTION ( 'NONE',  ( 0.000000000000000000, -1.000000000000000000, -3.491481338843133355E-15 ) ) ;
#58 = CARTESIAN_POINT ( 'NONE',  ( 0.000000000000000000, -5.880400223652177798E-14, 16.84213562373095030 ) ) ;
#59 = CIRCLE ( 'NONE', #519, 5.000000000000000000 ) ;
#60 = ORIENTED_EDGE ( 'NONE', *, *, #486, .T. ) ;
#61 = CIRCLE ( 'NONE', #547, 5.000000000000000000 ) ;
#62 = CARTESIAN_POINT ( 'NONE',  ( 0.000000000000000000, 8.728703347107833388E-15, -2.500000000000000000 ) ) ;
#63 = CARTESIAN_POINT ( 'NONE',  ( -110.0000000000000000, 9.999999999999976907, 2.500000000000035083 ) ) ;
#64 = EDGE_LOOP ( 'NONE', ( #312, #74, #222, #60, #200, #409 ) ) ;
#65 = CARTESIAN_POINT ( 'NONE',  ( -53.38248059349526642, -5.000000000000071942, -2.526001791263753571 ) ) ;
#66 = PLANE ( 'NONE',  #588 ) ;
#67 = ORIENTED_EDGE ( 'NONE', *, *, #526, .T. ) ;
#68 = DIRECTION ( 'NONE',  ( 0.000000000000000000, -3.491481338843133355E-15, 1.000000000000000000 ) ) ;
#69 = CARTESIAN_POINT ( 'NONE',  ( -109.8574998546690011, -9.973689178601828687, -9.964374963667282259 ) ) ;
#70 = CALENDAR_DATE ( 2026, 4, 8 ) ;
#71 = EDGE_CURVE ( 'NONE', #434, #5, #485, .T. ) ;
#72 = DIRECTION ( 'NONE',  ( 0.000000000000000000, 3.491481338843133355E-15, -1.000000000000000000 ) ) ;
#73 = CIRCLE ( 'NONE', #441, 10.00000000000005329 ) ;
#74 = ORIENTED_EDGE ( 'NONE', *, *, #314, .T. ) ;
#75 = CARTESIAN_POINT ( 'NONE',  ( 0.000000000000000000, 8.728703347107828655E-15, -2.499999999999998668 ) ) ;
#76 = LINE ( 'NONE', #466, #144 ) ;
#77 = ORIENTED_EDGE ( 'NONE', *, *, #512, .F. ) ;
#78 = FACE_OUTER_BOUND ( 'NONE', #391, .T. ) ;
#79 = ADVANCED_FACE ( 'NONE', ( #241 ), #189, .T. ) ;
#80 = VECTOR ( 'NONE', #419, 1000.000000000000000 ) ;
#81 = CARTESIAN_POINT ( 'NONE',  ( -109.9525020700216089, 9.991218255119951763, 9.988125517505435980 ) ) ;
#82 = B_SPLINE_CURVE_WITH_KNOTS ( 'NONE', 3,
 ( #571, #214, #415, #621, #171, #334 ),
 .UNSPECIFIED., .F., .F.,
 ( 4, 2, 4 ),
 ( 0.006168673014331325574, 0.03372860821460482023, 0.06128854341487831314 ),
 .UNSPECIFIED. ) ;
#83 = VERTEX_POINT ( 'NONE', #639 ) ;
#84 = ADVANCED_FACE ( 'NONE', ( #140 ), #349, .F. ) ;
#85 = ORIENTED_EDGE ( 'NONE', *, *, #218, .F. ) ;
#86 = ORIENTED_EDGE ( 'NONE', *, *, #494, .F. ) ;
#87 = CARTESIAN_POINT ( 'NONE',  ( -99.98373482343652086, 8.153090969612382111, 7.495933705859115115 ) ) ;
#88 = EDGE_CURVE ( 'NONE', #83, #274, #202, .T. ) ;
#89 = AXIS2_PLACEMENT_3D ( 'NONE', #468, #627, #276 ) ;
#90 = CARTESIAN_POINT ( 'NONE',  ( -109.8574998546691148, 9.973689178601828687, 9.964374963667305352 ) ) ;
#91 = DIRECTION ( 'NONE',  ( -0.000000000000000000, -3.491481338843133355E-15, 1.000000000000000000 ) ) ;
#92 = CC_DESIGN_PERSON_AND_ORGANIZATION_ASSIGNMENT ( #631, #343, ( #46 ) ) ;
#93 = CARTESIAN_POINT ( 'NONE',  ( -89.99525858839564307, 6.822542832745909003, -5.637020107689123982 ) ) ;
#94 = DIRECTION ( 'NONE',  ( 0.000000000000000000, 1.000000000000000000, 3.512815038853015828E-15 ) ) ;
#95 = AXIS2_PLACEMENT_3D ( 'NONE', #509, #502, #404 ) ;
#96 = CYLINDRICAL_SURFACE ( 'NONE', #285, 10.00000000000005329 ) ;
#97 = FACE_OUTER_BOUND ( 'NONE', #365, .T. ) ;
#98 = EDGE_CURVE ( 'NONE', #482, #434, #34, .T. ) ;
#99 = ORIENTED_EDGE ( 'NONE', *, *, #526, .F. ) ;
#100 = VERTEX_POINT ( 'NONE', #307 ) ;
#101 = AXIS2_PLACEMENT_3D ( 'NONE', #252, #497, #448 ) ;
#102 = PRODUCT_DEFINITION_FORMATION_WITH_SPECIFIED_SOURCE ( 'ANY', '', #186, .NOT_KNOWN. ) ;
#103 = CARTESIAN_POINT ( 'NONE',  ( -1.788737087637458867, -9.838720426524556473, 2.499999999999965805 ) ) ;
#104 = VERTEX_POINT ( 'NONE', #406 ) ;
#105 = CARTESIAN_POINT ( 'NONE',  ( -110.0000000000000000, -10.00000000000009948, 10.00000000000003020 ) ) ;
#106 = CYLINDRICAL_SURFACE ( 'NONE', #125, 5.000000000000000000 ) ;
#107 = AXIS2_PLACEMENT_3D ( 'NONE', #175, #465, #379 ) ;
#108 = VERTEX_POINT ( 'NONE', #317 ) ;
#109 = EDGE_CURVE ( 'NONE', #9, #29, #606, .T. ) ;
#110 = DATE_AND_TIME ( #464, #272 ) ;
#111 = DIRECTION ( 'NONE',  ( 0.000000000000000000, 1.000000000000000000, 3.491481338843133355E-15 ) ) ;
#112 = PLANE ( 'NONE',  #89 ) ;
#113 = ORIENTED_EDGE ( 'NONE', *, *, #486, .F. ) ;
#114 = AXIS2_PLACEMENT_3D ( 'NONE', #302, #26, #143 ) ;
#115 = CC_DESIGN_PERSON_AND_ORGANIZATION_ASSIGNMENT ( #371, #574, ( #233 ) ) ;
#116 = DATE_AND_TIME ( #520, #37 ) ;
#117 = PLANE ( 'NONE',  #648 ) ;
#118 = ORIENTED_EDGE ( 'NONE', *, *, #98, .F. ) ;
#119 = DIRECTION ( 'NONE',  ( 0.000000000000000000, 1.000000000000000000, 3.469446951953614189E-15 ) ) ;
#120 = DIRECTION ( 'NONE',  ( 0.000000000000000000, -3.491481338843133355E-15, 1.000000000000000000 ) ) ;
#121 = ADVANCED_FACE ( 'NONE', ( #451 ), #267, .T. ) ;
#122 = CALENDAR_DATE ( 2026, 4, 8 ) ;
#123 = FACE_BOUND ( 'NONE', #611, .T. ) ;
#124 = APPROVAL_ROLE ( '' ) ;
#125 = AXIS2_PLACEMENT_3D ( 'NONE', #58, #422, #119 ) ;
#126 = ORIENTED_EDGE ( 'NONE', *, *, #643, .T. ) ;
#127 = FACE_OUTER_BOUND ( 'NONE', #269, .T. ) ;
#128 = CIRCLE ( 'NONE', #601, 300.0206611570247901 ) ;
#129 = EDGE_CURVE ( 'NONE', #456, #104, #219, .T. ) ;
#130 = VERTEX_POINT ( 'NONE', #612 ) ;
#131 = FACE_OUTER_BOUND ( 'NONE', #162, .T. ) ;
#132 = ORIENTED_EDGE ( 'NONE', *, *, #635, .F. ) ;
#133 = COORDINATED_UNIVERSAL_TIME_OFFSET ( 8, 0, .BEHIND. ) ;
#134 = ORIENTED_EDGE ( 'NONE', *, *, #350, .F. ) ;
#135 = CARTESIAN_POINT ( 'NONE',  ( 0.000000000000000000, -8.728703347107833388E-15, 2.500000000000000000 ) ) ;
#136 = AXIS2_PLACEMENT_3D ( 'NONE', #352, #493, #395 ) ;
#137 = CARTESIAN_POINT ( 'NONE',  ( 0.000000000000000000, -8.728703347107833388E-15, 2.500000000000000000 ) ) ;
#138 = APPROVAL_PERSON_ORGANIZATION ( #458, #540, #6 ) ;
#139 = AXIS2_PLACEMENT_3D ( 'NONE', #15, #111, #418 ) ;
#140 = FACE_OUTER_BOUND ( 'NONE', #239, .T. ) ;
#141 = ADVANCED_FACE ( 'NONE', ( #197 ), #96, .T. ) ;
#142 = CARTESIAN_POINT ( 'NONE',  ( -110.0000000000000000, 10.00000000000003197, 10.00000000000009948 ) ) ;
#143 = DIRECTION ( 'NONE',  ( 1.000000000000000000, 0.000000000000000000, 0.000000000000000000 ) ) ;
#144 = VECTOR ( 'NONE', #215, 1000.000000000000000 ) ;
#145 = CARTESIAN_POINT ( 'NONE',  ( -55.45454545454541773, -305.0206611570247901, -2.500000000001065370 ) ) ;
#146 = CARTESIAN_POINT ( 'NONE',  ( -55.45454545454549589, 305.0206611570247901, -2.499999999998935074 ) ) ;
#147 = EDGE_CURVE ( 'NONE', #130, #246, #151, .T. ) ;
#148 = DIRECTION ( 'NONE',  ( 0.000000000000000000, 1.000000000000000000, 3.512815038853015828E-15 ) ) ;
#149 =( LENGTH_UNIT ( ) NAMED_UNIT ( * ) SI_UNIT ( .MILLI., .METRE. ) );
#150 = ORIENTED_EDGE ( 'NONE', *, *, #147, .T. ) ;
#151 = LINE ( 'NONE', #459, #508 ) ;
#152 = VERTEX_POINT ( 'NONE', #90 ) ;
#153 = LOCAL_TIME ( 10, 52, 38.00000000000000000, #487 ) ;
#154 = CARTESIAN_POINT ( 'NONE',  ( -110.0000000000000000, -10.00000000000003020, -10.00000000000009948 ) ) ;
#155 = CARTESIAN_POINT ( 'NONE',  ( -49.22359359558506497, -5.064710457543650790, 2.499999999999982236 ) ) ;
#156 = EDGE_LOOP ( 'NONE', ( #436, #632, #205, #198 ) ) ;
#157 = DIRECTION ( 'NONE',  ( 1.000000000000000000, 0.000000000000000000, 0.000000000000000000 ) ) ;
#158 = CARTESIAN_POINT ( 'NONE',  ( -55.45454545454549589, 305.0206611570247901, -2.499999999998935074 ) ) ;
#159 = CIRCLE ( 'NONE', #420, 5.000000000000000000 ) ;
#160 = EDGE_CURVE ( 'NONE', #108, #38, #443, .T. ) ;
#161 = ORIENTED_EDGE ( 'NONE', *, *, #579, .F. ) ;
#162 = EDGE_LOOP ( 'NONE', ( #134, #374, #595, #230 ) ) ;
#163 = APPROVAL_ROLE ( '' ) ;
#164 = CARTESIAN_POINT ( 'NONE',  ( -55.45454545454549589, 305.0206611570247901, 2.600000000001065015 ) ) ;
#165 = DIRECTION ( 'NONE',  ( 0.000000000000000000, 1.000000000000000000, 3.469446951953614189E-15 ) ) ;
#166 = EDGE_LOOP ( 'NONE', ( #413, #227, #437, #619 ) ) ;
#167 = VECTOR ( 'NONE', #581, 1000.000000000000000 ) ;
#168 = DIRECTION ( 'NONE',  ( 0.000000000000000000, 3.491481338843133355E-15, -1.000000000000000000 ) ) ;
#169 = FACE_OUTER_BOUND ( 'NONE', #511, .T. ) ;
#170 = EDGE_CURVE ( 'NONE', #274, #397, #311, .T. ) ;
#171 = CARTESIAN_POINT ( 'NONE',  ( -100.9775262321458058, -8.336333618498809273, 7.744381558036352864 ) ) ;
#172 = CARTESIAN_POINT ( 'NONE',  ( 1.224646799147359765E-15, -10.00000000000006217, 2.499999999999964917 ) ) ;
#173 = PERSON_AND_ORGANIZATION ( #380, #410 ) ;
#174 = CARTESIAN_POINT ( 'NONE',  ( -1.788737087637471301, 9.838720426524552920, -2.499999999999965805 ) ) ;
#175 = CARTESIAN_POINT ( 'NONE',  ( -55.45454545454549589, 305.0206611570247901, 2.500000000001065370 ) ) ;
#176 = PERSON_AND_ORGANIZATION ( #380, #410 ) ;
#177 = EDGE_CURVE ( 'NONE', #246, #100, #280, .T. ) ;
#178 = APPROVAL_PERSON_ORGANIZATION ( #270, #629, #163 ) ;
#179 = LINE ( 'NONE', #400, #373 ) ;
#180 = CARTESIAN_POINT ( 'NONE',  ( -55.45454545454541773, -305.0206611570247901, 2.499999999998935074 ) ) ;
#181 = DATE_AND_TIME ( #432, #645 ) ;
#182 = EDGE_CURVE ( 'NONE', #104, #370, #359, .T. ) ;
#183 = VERTEX_POINT ( 'NONE', #103 ) ;
#184 = CARTESIAN_POINT ( 'NONE',  ( -109.8574998546690011, -9.973689178601828687, -9.964374963667282259 ) ) ;
#185 = DIRECTION ( 'NONE',  ( 0.000000000000000000, 1.000000000000000000, 3.512815038853015828E-15 ) ) ;
#186 = PRODUCT ( 'DroneArmA', 'DroneArmA', '', ( #513 ) ) ;
#187 = CARTESIAN_POINT ( 'NONE',  ( 0.000000000000000000, 10.00000000000004619, 2.500000000000035083 ) ) ;
#188 = ADVANCED_FACE ( 'NONE', ( #313 ), #495, .T. ) ;
#189 = CYLINDRICAL_SURFACE ( 'NONE', #554, 5.000000000000000000 ) ;
#190 = AXIS2_PLACEMENT_3D ( 'NONE', #145, #217, #271 ) ;
#191 = CARTESIAN_POINT ( 'NONE',  ( -55.45454545454549589, 305.0206611570247901, 2.500000000001065370 ) ) ;
#192 = LINE ( 'NONE', #261, #80 ) ;
#193 = DIRECTION ( 'NONE',  ( 0.000000000000000000, 1.000000000000000000, 3.491481338843133355E-15 ) ) ;
#194 = ADVANCED_FACE ( 'NONE', ( #260, #565 ), #454, .T. ) ;
#195 = DIRECTION ( 'NONE',  ( 0.000000000000000000, 1.000000000000000000, 3.469446951953614189E-15 ) ) ;
#196 = VERTEX_POINT ( 'NONE', #398 ) ;
#197 = FACE_OUTER_BOUND ( 'NONE', #166, .T. ) ;
#198 = ORIENTED_EDGE ( 'NONE', *, *, #369, .T. ) ;
#199 = CARTESIAN_POINT ( 'NONE',  ( -99.98373482343644980, 8.153090969612410532, -7.495933705859032514 ) ) ;
#200 = ORIENTED_EDGE ( 'NONE', *, *, #350, .T. ) ;
#201 = VERTEX_POINT ( 'NONE', #605 ) ;
#202 = LINE ( 'NONE', #50, #273 ) ;
#203 = CARTESIAN_POINT ( 'NONE',  ( 1.224646799147360948E-15, -10.00000000000006217, 2.499999999999964917 ) ) ;
#204 = ORIENTED_EDGE ( 'NONE', *, *, #346, .F. ) ;
#205 = ORIENTED_EDGE ( 'NONE', *, *, #14, .T. ) ;
#206 = APPROVAL_STATUS ( 'not_yet_approved' ) ;
#207 = CARTESIAN_POINT ( 'NONE',  ( -110.0000000000000000, 3.491481338843133355E-14, -10.00000000000000000 ) ) ;
#208 = DIRECTION ( 'NONE',  ( 0.000000000000000000, 1.000000000000000000, 3.490890575942171394E-15 ) ) ;
#209 = DESIGN_CONTEXT ( 'detailed design', #445, 'design' ) ;
#210 = DIRECTION ( 'NONE',  ( 0.000000000000000000, 1.000000000000000000, 3.469446951953614189E-15 ) ) ;
#211 = VECTOR ( 'NONE', #471, 1000.000000000000000 ) ;
#212 = ORIENTED_EDGE ( 'NONE', *, *, #499, .F. ) ;
#213 = APPLICATION_CONTEXT ( 'configuration controlled 3d designs of mechanical parts and assemblies' ) ;
#214 = CARTESIAN_POINT ( 'NONE',  ( -64.71196162308497435, -5.000000000000036415, 2.808463340439417255 ) ) ;
#215 = DIRECTION ( 'NONE',  ( -0.000000000000000000, 3.491481338843133355E-15, -1.000000000000000000 ) ) ;
#216 = CC_DESIGN_PERSON_AND_ORGANIZATION_ASSIGNMENT ( #325, #366, ( #186 ) ) ;
#217 = DIRECTION ( 'NONE',  ( -0.000000000000000000, 3.491481338843133355E-15, -1.000000000000000000 ) ) ;
#218 = EDGE_CURVE ( 'NONE', #130, #235, #537, .T. ) ;
#219 = CIRCLE ( 'NONE', #589, 10.00000000000005329 ) ;
#220 = CARTESIAN_POINT ( 'NONE',  ( -109.8574998546688590, 9.973689178601842897, -9.964374963667184559 ) ) ;
#221 = CC_DESIGN_SECURITY_CLASSIFICATION ( #46, ( #102 ) ) ;
#222 = ORIENTED_EDGE ( 'NONE', *, *, #556, .T. ) ;
#223 = CARTESIAN_POINT ( 'NONE',  ( -110.0000000000000000, 10.00000000000010125, -10.00000000000003020 ) ) ;
#224 = APPROVAL_DATE_TIME ( #181, #540 ) ;
#225 = AXIS2_PLACEMENT_3D ( 'NONE', #207, #506, #249 ) ;
#226 = B_SPLINE_CURVE_WITH_KNOTS ( 'NONE', 3,
 ( #382, #87, #39, #247, #442, #650 ),
 .UNSPECIFIED., .F., .F.,
 ( 4, 2, 4 ),
 ( 5.618469141565345737E-17, 0.03064427170743912882, 0.06128854341487820212 ),
 .UNSPECIFIED. ) ;
#227 = ORIENTED_EDGE ( 'NONE', *, *, #33, .T. ) ;
#228 = LINE ( 'NONE', #524, #393 ) ;
#229 = EDGE_CURVE ( 'NONE', #235, #201, #248, .T. ) ;
#230 = ORIENTED_EDGE ( 'NONE', *, *, #33, .F. ) ;
#231 = DIRECTION ( 'NONE',  ( 0.000000000000000000, 1.000000000000000000, 3.490890575942171789E-15 ) ) ;
#232 = VERTEX_POINT ( 'NONE', #330 ) ;
#233 = PRODUCT_DEFINITION ( 'UNKNOWN', '', #102, #209 ) ;
#234 = AXIS2_PLACEMENT_3D ( 'NONE', #460, #8, #210 ) ;
#235 = VERTEX_POINT ( 'NONE', #474 ) ;
#236 = VECTOR ( 'NONE', #32, 1000.000000000000000 ) ;
#237 = ORIENTED_EDGE ( 'NONE', *, *, #556, .F. ) ;
#238 = LINE ( 'NONE', #535, #17 ) ;
#239 = EDGE_LOOP ( 'NONE', ( #489, #431, #351, #277, #1, #237 ) ) ;
#240 = B_SPLINE_CURVE_WITH_KNOTS ( 'NONE', 3,
 ( #30, #641, #345, #551 ),
 .UNSPECIFIED., .F., .F.,
 ( 4, 4 ),
 ( 0.000000000000000000, 0.006168673014331325574 ),
 .UNSPECIFIED. ) ;
#241 = FACE_OUTER_BOUND ( 'NONE', #518, .T. ) ;
#242 = EDGE_CURVE ( 'NONE', #258, #278, #414, .T. ) ;
#243 = B_SPLINE_CURVE_WITH_KNOTS ( 'NONE', 3,
 ( #582, #65, #372, #421 ),
 .UNSPECIFIED., .F., .F.,
 ( 4, 4 ),
 ( 0.05511987040054680542, 0.06128854341487824375 ),
 .UNSPECIFIED. ) ;
#244 = CARTESIAN_POINT ( 'NONE',  ( 0.000000000000000000, 5.000000000000008882, -2.599999999999982325 ) ) ;
#245 = CC_DESIGN_APPROVAL ( #444, ( #46 ) ) ;
#246 = VERTEX_POINT ( 'NONE', #426 ) ;
#247 = CARTESIAN_POINT ( 'NONE',  ( -69.78638187485498179, 5.171070360643964747, 3.139154545507307326 ) ) ;
#248 = CIRCLE ( 'NONE', #41, 10.00000000000005329 ) ;
#249 = DIRECTION ( 'NONE',  ( 0.000000000000000000, 1.000000000000000000, 3.491481338843133355E-15 ) ) ;
#250 = CARTESIAN_POINT ( 'NONE',  ( -55.45454545454541773, -305.0206611570247901, 2.499999999998935074 ) ) ;
#251 = ORIENTED_EDGE ( 'NONE', *, *, #170, .T. ) ;
#252 = CARTESIAN_POINT ( 'NONE',  ( 0.000000000000000000, -5.880400223652177798E-14, 16.84213562373095030 ) ) ;
#253 =( NAMED_UNIT ( * ) SI_UNIT ( $, .STERADIAN. ) SOLID_ANGLE_UNIT ( ) );
#254 = CIRCLE ( 'NONE', #626, 300.0206611570247901 ) ;
#255 = PRODUCT_RELATED_PRODUCT_CATEGORY ( 'detail', '', ( #186 ) ) ;
#256 = CARTESIAN_POINT ( 'NONE',  ( -109.8574998546691717, -9.973689178601897964, 9.964374963667250285 ) ) ;
#257 = CARTESIAN_POINT ( 'NONE',  ( -109.9050020206546208, -9.982447981150155414, 9.976250505163612559 ) ) ;
#258 = VERTEX_POINT ( 'NONE', #584 ) ;
#259 = ORIENTED_EDGE ( 'NONE', *, *, #314, .F. ) ;
#260 = FACE_OUTER_BOUND ( 'NONE', #358, .T. ) ;
#261 = CARTESIAN_POINT ( 'NONE',  ( -109.8574998546689869, 3.479042923887991309E-14, -9.964374963667246732 ) ) ;
#262 = ADVANCED_BREP_SHAPE_REPRESENTATION ( 'DroneArmA', ( #301, #553 ), #463 ) ;
#263 = ORIENTED_EDGE ( 'NONE', *, *, #423, .F. ) ;
#264 = ORIENTED_EDGE ( 'NONE', *, *, #494, .T. ) ;
#265 = ADVANCED_FACE ( 'NONE', ( #634 ), #117, .F. ) ;
#266 = COORDINATED_UNIVERSAL_TIME_OFFSET ( 8, 0, .BEHIND. ) ;
#267 = CYLINDRICAL_SURFACE ( 'NONE', #101, 5.000000000000000000 ) ;
#268 = CARTESIAN_POINT ( 'NONE',  ( -55.45454545454549589, 305.0206611570247901, 2.500000000001065370 ) ) ;
#269 = EDGE_LOOP ( 'NONE', ( #390, #381, #453, #642, #251, #490 ) ) ;
#270 = PERSON_AND_ORGANIZATION ( #380, #410 ) ;
#271 = DIRECTION ( 'NONE',  ( 0.000000000000000000, -1.000000000000000000, -3.490890575942171394E-15 ) ) ;
#272 = LOCAL_TIME ( 10, 52, 38.00000000000000000, #615 ) ;
#273 = VECTOR ( 'NONE', #53, 1000.000000000000000 ) ;
#274 = VERTEX_POINT ( 'NONE', #283 ) ;
#275 = DIRECTION ( 'NONE',  ( 0.000000000000000000, 1.000000000000000000, 3.490890575942171394E-15 ) ) ;
#276 = DIRECTION ( 'NONE',  ( 0.000000000000000000, 1.000000000000000000, 3.491481338843133355E-15 ) ) ;
#277 = ORIENTED_EDGE ( 'NONE', *, *, #218, .T. ) ;
#278 = VERTEX_POINT ( 'NONE', #321 ) ;
#279 = DIRECTION ( 'NONE',  ( 0.000000000000000000, -3.491481338843133355E-15, 1.000000000000000000 ) ) ;
#280 = B_SPLINE_CURVE_WITH_KNOTS ( 'NONE', 3,
 ( #40, #7, #616, #93, #199, #610 ),
 .UNSPECIFIED., .F., .F.,
 ( 4, 2, 4 ),
 ( 0.000000000000000000, 0.03064427170743905596, 0.06128854341487811191 ),
 .UNSPECIFIED. ) ;
#281 = CC_DESIGN_PERSON_AND_ORGANIZATION_ASSIGNMENT ( #289, #337, ( #102 ) ) ;
#282 = SHAPE_DEFINITION_REPRESENTATION ( #599, #262 ) ;
#283 = CARTESIAN_POINT ( 'NONE',  ( -110.0000000000000000, -10.00000000000003020, -10.00000000000009948 ) ) ;
#284 = LINE ( 'NONE', #514, #316 ) ;
#285 = AXIS2_PLACEMENT_3D ( 'NONE', #608, #355, #148 ) ;
#286 = ADVANCED_FACE ( 'NONE', ( #24 ), #376, .F. ) ;
#287 = DIRECTION ( 'NONE',  ( -0.000000000000000000, 3.491481338843133355E-15, -1.000000000000000000 ) ) ;
#288 = DIRECTION ( 'NONE',  ( 0.000000000000000000, 3.491481338843133355E-15, -1.000000000000000000 ) ) ;
#289 = PERSON_AND_ORGANIZATION ( #380, #410 ) ;
#290 = AXIS2_PLACEMENT_3D ( 'NONE', #500, #594, #292 ) ;
#291 = ORIENTED_EDGE ( 'NONE', *, *, #170, .F. ) ;
#292 = DIRECTION ( 'NONE',  ( 0.000000000000000000, 1.000000000000000000, 3.512815038853015828E-15 ) ) ;
#293 = CARTESIAN_POINT ( 'NONE',  ( -109.8574998546691148, 9.973689178601828687, 9.964374963667305352 ) ) ;
#294 = DATE_AND_TIME ( #70, #362 ) ;
#295 = VECTOR ( 'NONE', #347, 1000.000000000000000 ) ;
#296 = ORIENTED_EDGE ( 'NONE', *, *, #177, .F. ) ;
#297 = EDGE_CURVE ( 'NONE', #104, #196, #128, .T. ) ;
#298 = ORIENTED_EDGE ( 'NONE', *, *, #23, .F. ) ;
#299 = ORIENTED_EDGE ( 'NONE', *, *, #56, .T. ) ;
#300 = EDGE_LOOP ( 'NONE', ( #263, #403, #10, #405 ) ) ;
#301 = MANIFOLD_SOLID_BREP ( 'Body-Move/Copy1', #578 ) ;
#302 = CARTESIAN_POINT ( 'NONE',  ( -49.22359359558495129, 305.0206611570256996, -252.4999999999989484 ) ) ;
#303 = AXIS2_PLACEMENT_3D ( 'NONE', #455, #328, #522 ) ;
#304 = EDGE_CURVE ( 'NONE', #586, #258, #284, .T. ) ;
#305 = DIRECTION ( 'NONE',  ( 0.000000000000000000, 3.491481338843133355E-15, -1.000000000000000000 ) ) ;
#306 = PLANE ( 'NONE',  #483 ) ;
#307 = CARTESIAN_POINT ( 'NONE',  ( -109.8574998546688590, 9.973689178601842897, -9.964374963667184559 ) ) ;
#308 = DIRECTION ( 'NONE',  ( 0.000000000000000000, 1.000000000000000000, 3.490890575942171394E-15 ) ) ;
#309 = CARTESIAN_POINT ( 'NONE',  ( -109.9525020700214952, -9.991218255119941105, -9.988125517505411111 ) ) ;
#310 = ORIENTED_EDGE ( 'NONE', *, *, #412, .F. ) ;
#311 =( BOUNDED_CURVE ( )  B_SPLINE_CURVE ( 3, ( #154, #309, #47, #656 ),
 .UNSPECIFIED., .F., .F. ) 
 B_SPLINE_CURVE_WITH_KNOTS ( ( 4, 4 ),
 ( 1.387973923074334648, 1.388456919038046689 ),
 .UNSPECIFIED. ) 
 CURVE ( )  GEOMETRIC_REPRESENTATION_ITEM ( )  RATIONAL_B_SPLINE_CURVE ( ( 1.000000000000000000, 0.9999999805595749525, 0.9999999805595749525, 1.000000000000000000 ) ) 
 REPRESENTATION_ITEM ( '' )  );
#312 = ORIENTED_EDGE ( 'NONE', *, *, #297, .T. ) ;
#313 = FACE_OUTER_BOUND ( 'NONE', #573, .T. ) ;
#314 = EDGE_CURVE ( 'NONE', #196, #564, #228, .T. ) ;
#315 = ORIENTED_EDGE ( 'NONE', *, *, #109, .F. ) ;
#316 = VECTOR ( 'NONE', #16, 1000.000000000000000 ) ;
#317 = CARTESIAN_POINT ( 'NONE',  ( -55.45454545454541773, -5.000000000000079048, 2.577661584780829074 ) ) ;
#318 = DIRECTION ( 'NONE',  ( -0.000000000000000000, 3.491481338843133355E-15, -1.000000000000000000 ) ) ;
#319 = ORIENTED_EDGE ( 'NONE', *, *, #412, .T. ) ;
#320 = APPROVAL_DATE_TIME ( #110, #629 ) ;
#321 = CARTESIAN_POINT ( 'NONE',  ( 0.000000000000000000, 4.999999999999991118, 2.500000000000017319 ) ) ;
#322 = LINE ( 'NONE', #63, #211 ) ;
#323 = AXIS2_PLACEMENT_3D ( 'NONE', #75, #481, #195 ) ;
#324 = ORIENTED_EDGE ( 'NONE', *, *, #71, .F. ) ;
#325 = PERSON_AND_ORGANIZATION ( #380, #410 ) ;
#326 = EDGE_CURVE ( 'NONE', #38, #130, #243, .T. ) ;
#327 = DIRECTION ( 'NONE',  ( 0.000000000000000000, 3.491481338843133355E-15, -1.000000000000000000 ) ) ;
#328 = DIRECTION ( 'NONE',  ( -0.000000000000000000, 3.491481338843133355E-15, -1.000000000000000000 ) ) ;
#329 = ORIENTED_EDGE ( 'NONE', *, *, #229, .T. ) ;
#330 = CARTESIAN_POINT ( 'NONE',  ( 0.000000000000000000, 10.00000000000006217, -2.499999999999964917 ) ) ;
#331 = DIRECTION ( 'NONE',  ( 0.000000000000000000, 1.000000000000000000, 3.512815038853015828E-15 ) ) ;
#332 = APPROVAL_DATE_TIME ( #532, #444 ) ;
#333 = VERTEX_POINT ( 'NONE', #527 ) ;
#334 = CARTESIAN_POINT ( 'NONE',  ( -109.8574998546691717, -9.973689178601897964, 9.964374963667250285 ) ) ;
#335 = ADVANCED_FACE ( 'NONE', ( #521, #123 ), #12, .F. ) ;
#336 = DIRECTION ( 'NONE',  ( -0.2425356250363359667, 3.387234435276045712E-15, -0.9701425001453312102 ) ) ;
#337 = PERSON_AND_ORGANIZATION_ROLE ( 'creator' ) ;
#338 = AXIS2_PLACEMENT_3D ( 'NONE', #158, #305, #193 ) ;
#339 = EDGE_CURVE ( 'NONE', #108, #482, #82, .T. ) ;
#340 = ORIENTED_EDGE ( 'NONE', *, *, #428, .T. ) ;
#341 = DIRECTION ( 'NONE',  ( -0.000000000000000000, 3.491481338843133355E-15, -1.000000000000000000 ) ) ;
#342 = CARTESIAN_POINT ( 'NONE',  ( 0.000000000000000000, 4.999999999999941380, 16.84213562373096806 ) ) ;
#343 = PERSON_AND_ORGANIZATION_ROLE ( 'classification_officer' ) ;
#344 = AXIS2_PLACEMENT_3D ( 'NONE', #653, #587, #94 ) ;
#345 = CARTESIAN_POINT ( 'NONE',  ( -53.38248059349532326, -5.000000000000034639, 2.526001791263711826 ) ) ;
#346 = EDGE_CURVE ( 'NONE', #586, #333, #479, .T. ) ;
#347 = DIRECTION ( 'NONE',  ( -0.000000000000000000, 3.491481338843133355E-15, -1.000000000000000000 ) ) ;
#348 = CARTESIAN_POINT ( 'NONE',  ( -110.0000000000000000, 10.00000000000003197, 10.00000000000009948 ) ) ;
#349 = CYLINDRICAL_SURFACE ( 'NONE', #638, 300.0206611570247333 ) ;
#350 = EDGE_CURVE ( 'NONE', #561, #456, #73, .T. ) ;
#351 = ORIENTED_EDGE ( 'NONE', *, *, #326, .T. ) ;
#352 = CARTESIAN_POINT ( 'NONE',  ( 0.000000000000000000, -8.728703347107833388E-15, 2.500000000000000000 ) ) ;
#353 = CIRCLE ( 'NONE', #303, 300.0206611570247901 ) ;
#354 = VECTOR ( 'NONE', #646, 1000.000000000000000 ) ;
#355 = DIRECTION ( 'NONE',  ( -0.000000000000000000, 3.491481338843133355E-15, -1.000000000000000000 ) ) ;
#356 = DIRECTION ( 'NONE',  ( 0.000000000000000000, -1.000000000000000000, -3.491481338843133355E-15 ) ) ;
#357 = DIRECTION ( 'NONE',  ( -0.000000000000000000, 3.491481338843133355E-15, -1.000000000000000000 ) ) ;
#358 = EDGE_LOOP ( 'NONE', ( #85, #150, #86, #49, #517, #25 ) ) ;
#359 = LINE ( 'NONE', #563, #425 ) ;
#360 = EDGE_CURVE ( 'NONE', #100, #83, #378, .T. ) ;
#361 = ORIENTED_EDGE ( 'NONE', *, *, #109, .T. ) ;
#362 = LOCAL_TIME ( 10, 52, 38.00000000000000000, #543 ) ;
#363 = CARTESIAN_POINT ( 'NONE',  ( -55.45454545454541773, -5.000000000000060396, 2.499999999999982236 ) ) ;
#364 = LINE ( 'NONE', #18, #167 ) ;
#365 = EDGE_LOOP ( 'NONE', ( #264, #368, #539, #161, #299, #67, #452, #530 ) ) ;
#366 = PERSON_AND_ORGANIZATION_ROLE ( 'design_owner' ) ;
#367 =( NAMED_UNIT ( * ) PLANE_ANGLE_UNIT ( ) SI_UNIT ( $, .RADIAN. ) );
#368 = ORIENTED_EDGE ( 'NONE', *, *, #177, .T. ) ;
#369 = EDGE_CURVE ( 'NONE', #278, #258, #159, .T. ) ;
#370 = VERTEX_POINT ( 'NONE', #174 ) ;
#371 = PERSON_AND_ORGANIZATION ( #380, #410 ) ;
#372 = CARTESIAN_POINT ( 'NONE',  ( -51.30551943593681585, -5.021462841835687030, -2.500000000000042633 ) ) ;
#373 = VECTOR ( 'NONE', #341, 1000.000000000000000 ) ;
#374 = ORIENTED_EDGE ( 'NONE', *, *, #603, .T. ) ;
#375 = DIRECTION ( 'NONE',  ( 0.000000000000000000, -1.000000000000000000, -3.469446951953614189E-15 ) ) ;
#376 = CYLINDRICAL_SURFACE ( 'NONE', #139, 249.9999999999999716 ) ;
#377 = FACE_OUTER_BOUND ( 'NONE', #55, .T. ) ;
#378 =( BOUNDED_CURVE ( )  B_SPLINE_CURVE ( 3, ( #220, #531, #20, #223 ),
 .UNSPECIFIED., .F., .F. ) 
 B_SPLINE_CURVE_WITH_KNOTS ( ( 4, 4 ),
 ( 4.894728388141539099, 4.895211384105251362 ),
 .UNSPECIFIED. ) 
 CURVE ( )  GEOMETRIC_REPRESENTATION_ITEM ( )  RATIONAL_B_SPLINE_CURVE ( ( 1.000000000000000000, 0.9999999805595749525, 0.9999999805595749525, 1.000000000000000000 ) ) 
 REPRESENTATION_ITEM ( '' )  );
#379 = DIRECTION ( 'NONE',  ( 0.000000000000000000, 1.000000000000000000, 3.491481338843133355E-15 ) ) ;
#380 = PERSON ( 'UNSPECIFIED', 'UNSPECIFIED', 'UNSPECIFIED', ('UNSPECIFIED'), ('UNSPECIFIED'), ('UNSPECIFIED') ) ;
#381 = ORIENTED_EDGE ( 'NONE', *, *, #339, .T. ) ;
#382 = CARTESIAN_POINT ( 'NONE',  ( -109.8574998546691148, 9.973689178601828687, 9.964374963667305352 ) ) ;
#383 = CARTESIAN_POINT ( 'NONE',  ( -73.87191652215211946, -5.427449031919248768, -3.549839563966961098 ) ) ;
#384 = VECTOR ( 'NONE', #318, 1000.000000000000000 ) ;
#385 = CARTESIAN_POINT ( 'NONE',  ( 0.000000000000000000, 8.728703347107828655E-15, -2.499999999999998668 ) ) ;
#386 = DIRECTION ( 'NONE',  ( 0.000000000000000000, 1.000000000000000000, 3.490890575942171789E-15 ) ) ;
#387 = ADVANCED_FACE ( 'NONE', ( #131 ), #430, .T. ) ;
#388 = ORIENTED_EDGE ( 'NONE', *, *, #304, .T. ) ;
#389 = DIRECTION ( 'NONE',  ( -0.000000000000000000, 3.491481338843133355E-15, -1.000000000000000000 ) ) ;
#390 = ORIENTED_EDGE ( 'NONE', *, *, #160, .F. ) ;
#391 = EDGE_LOOP ( 'NONE', ( #132, #591, #296, #462, #623 ) ) ;
#392 = CARTESIAN_POINT ( 'NONE',  ( 0.000000000000000000, -5.880400223652177798E-14, 16.84213562373095030 ) ) ;
#393 = VECTOR ( 'NONE', #57, 1000.000000000000000 ) ;
#394 = CARTESIAN_POINT ( 'NONE',  ( 0.000000000000000000, -9.077851480992146724E-15, 2.600000000000000089 ) ) ;
#395 = DIRECTION ( 'NONE',  ( 0.000000000000000000, 1.000000000000000000, 3.512815038853015828E-15 ) ) ;
#396 = AXIS2_PLACEMENT_3D ( 'NONE', #385, #91, #446 ) ;
#397 = VERTEX_POINT ( 'NONE', #184 ) ;
#398 = CARTESIAN_POINT ( 'NONE',  ( -49.22359359558506497, 5.064710457543633026, 2.500000000000017764 ) ) ;
#399 = DIRECTION ( 'NONE',  ( 0.000000000000000000, 0.000000000000000000, 1.000000000000000000 ) ) ;
#400 = CARTESIAN_POINT ( 'NONE',  ( -109.9999999999999005, -10.00000000000007283, 2.499999999999964917 ) ) ;
#401 = DIRECTION ( 'NONE',  ( 0.000000000000000000, 1.000000000000000000, 3.512815038853015828E-15 ) ) ;
#402 = ORIENTED_EDGE ( 'NONE', *, *, #360, .F. ) ;
#403 = ORIENTED_EDGE ( 'NONE', *, *, #71, .T. ) ;
#404 = DIRECTION ( 'NONE',  ( 0.000000000000000000, 1.000000000000000000, 3.469446951953614189E-15 ) ) ;
#405 = ORIENTED_EDGE ( 'NONE', *, *, #88, .T. ) ;
#406 = CARTESIAN_POINT ( 'NONE',  ( -1.788737087637471301, 9.838720426524535156, 2.500000000000034195 ) ) ;
#407 = UNCERTAINTY_MEASURE_WITH_UNIT (LENGTH_MEASURE( 1.000000000000000082E-05 ), #149, 'distance_accuracy_value', 'NONE');
#408 = DIRECTION ( 'NONE',  ( 0.000000000000000000, 1.000000000000000000, 3.491481338843133355E-15 ) ) ;
#409 = ORIENTED_EDGE ( 'NONE', *, *, #129, .T. ) ;
#410 = ORGANIZATION ( 'UNSPECIFIED', 'UNSPECIFIED', '' ) ;
#411 = DIRECTION ( 'NONE',  ( 0.000000000000000000, -3.491481338843133355E-15, 1.000000000000000000 ) ) ;
#412 = EDGE_CURVE ( 'NONE', #482, #152, #558, .T. ) ;
#413 = ORIENTED_EDGE ( 'NONE', *, *, #129, .F. ) ;
#414 = CIRCLE ( 'NONE', #22, 5.000000000000000000 ) ;
#415 = CARTESIAN_POINT ( 'NONE',  ( -73.87191652215220472, -5.427449031919250544, 3.549839563966876721 ) ) ;
#416 = DIRECTION ( 'NONE',  ( -0.000000000000000000, -3.491481338843133355E-15, 1.000000000000000000 ) ) ;
#417 = ORIENTED_EDGE ( 'NONE', *, *, #14, .F. ) ;
#418 = DIRECTION ( 'NONE',  ( -1.000000000000000000, 0.000000000000000000, 0.000000000000000000 ) ) ;
#419 = DIRECTION ( 'NONE',  ( -0.000000000000000000, -1.000000000000000000, -3.491481338843133355E-15 ) ) ;
#420 = AXIS2_PLACEMENT_3D ( 'NONE', #424, #279, #633 ) ;
#421 = CARTESIAN_POINT ( 'NONE',  ( -49.22359359558495129, -5.064710457543633026, -2.500000000000017764 ) ) ;
#422 = DIRECTION ( 'NONE',  ( -0.000000000000000000, 3.491481338843133355E-15, -1.000000000000000000 ) ) ;
#423 = EDGE_CURVE ( 'NONE', #434, #274, #179, .T. ) ;
#424 = CARTESIAN_POINT ( 'NONE',  ( 0.000000000000000000, -8.728703347107833388E-15, 2.500000000000000000 ) ) ;
#425 = VECTOR ( 'NONE', #3, 1000.000000000000000 ) ;
#426 = CARTESIAN_POINT ( 'NONE',  ( -49.22359359558495129, 5.064710457543650790, -2.499999999999982236 ) ) ;
#427 = CARTESIAN_POINT ( 'NONE',  ( -64.71196162308494593, -5.000000000000071054, -2.808463340439464329 ) ) ;
#428 = EDGE_CURVE ( 'NONE', #183, #235, #238, .T. ) ;
#429 = VERTEX_POINT ( 'NONE', #604 ) ;
#430 = CYLINDRICAL_SURFACE ( 'NONE', #136, 10.00000000000005329 ) ;
#431 = ORIENTED_EDGE ( 'NONE', *, *, #160, .T. ) ;
#432 = CALENDAR_DATE ( 2026, 4, 8 ) ;
#433 = EDGE_CURVE ( 'NONE', #232, #370, #501, .T. ) ;
#434 = VERTEX_POINT ( 'NONE', #655 ) ;
#435 = CYLINDRICAL_SURFACE ( 'NONE', #114, 250.0000000000000000 ) ;
#436 = ORIENTED_EDGE ( 'NONE', *, *, #304, .F. ) ;
#437 = ORIENTED_EDGE ( 'NONE', *, *, #433, .T. ) ;
#438 = FACE_OUTER_BOUND ( 'NONE', #577, .T. ) ;
#439 = ADVANCED_FACE ( 'NONE', ( #45 ), #306, .F. ) ;
#440 = ORIENTED_EDGE ( 'NONE', *, *, #640, .T. ) ;
#441 = AXIS2_PLACEMENT_3D ( 'NONE', #470, #68, #625 ) ;
#442 = CARTESIAN_POINT ( 'NONE',  ( -59.56602882894226525, 4.849868191893666136, 2.500000000000015099 ) ) ;
#443 = LINE ( 'NONE', #363, #618 ) ;
#444 = APPROVAL ( #538, 'UNSPECIFIED' ) ;
#445 = APPLICATION_CONTEXT ( 'configuration controlled 3d designs of mechanical parts and assemblies' ) ;
#446 = DIRECTION ( 'NONE',  ( 0.000000000000000000, 1.000000000000000000, 3.469446951953614189E-15 ) ) ;
#447 = CIRCLE ( 'NONE', #396, 5.000000000000000000 ) ;
#448 = DIRECTION ( 'NONE',  ( 0.000000000000000000, 1.000000000000000000, 3.469446951953614189E-15 ) ) ;
#449 = EDGE_CURVE ( 'NONE', #429, #505, #596, .T. ) ;
#450 = DIRECTION ( 'NONE',  ( 0.000000000000000000, 1.000000000000000000, 3.512815038853015828E-15 ) ) ;
#451 = FACE_OUTER_BOUND ( 'NONE', #156, .T. ) ;
#452 = ORIENTED_EDGE ( 'NONE', *, *, #297, .F. ) ;
#453 = ORIENTED_EDGE ( 'NONE', *, *, #98, .T. ) ;
#454 = PLANE ( 'NONE',  #338 ) ;
#455 = CARTESIAN_POINT ( 'NONE',  ( -55.45454545454541773, -305.0206611570247901, 2.499999999998935074 ) ) ;
#456 = VERTEX_POINT ( 'NONE', #592 ) ;
#457 = EDGE_LOOP ( 'NONE', ( #298, #204 ) ) ;
#458 = PERSON_AND_ORGANIZATION ( #380, #410 ) ;
#459 = CARTESIAN_POINT ( 'NONE',  ( -49.22359359558495129, 305.0206611570247901, -2.499999999998935074 ) ) ;
#460 = CARTESIAN_POINT ( 'NONE',  ( 0.000000000000000000, -5.880400223652177798E-14, 16.84213562373095030 ) ) ;
#461 = ORIENTED_EDGE ( 'NONE', *, *, #88, .F. ) ;
#462 = ORIENTED_EDGE ( 'NONE', *, *, #147, .F. ) ;
#463 =( GEOMETRIC_REPRESENTATION_CONTEXT ( 3 ) GLOBAL_UNCERTAINTY_ASSIGNED_CONTEXT ( ( #407 ) ) GLOBAL_UNIT_ASSIGNED_CONTEXT ( ( #149, #367, #253 ) ) REPRESENTATION_CONTEXT ( 'NONE', 'WORKASPACE' ) );
#464 = CALENDAR_DATE ( 2026, 4, 8 ) ;
#465 = DIRECTION ( 'NONE',  ( 0.000000000000000000, 3.491481338843133355E-15, -1.000000000000000000 ) ) ;
#466 = CARTESIAN_POINT ( 'NONE',  ( 0.000000000000000000, 4.999999999999941380, 16.84213562373096806 ) ) ;
#467 = CC_DESIGN_DATE_AND_TIME_ASSIGNMENT ( #294, #585, ( #46 ) ) ;
#468 = CARTESIAN_POINT ( 'NONE',  ( -110.0000000000000000, 0.000000000000000000, 0.000000000000000000 ) ) ;
#469 = ORIENTED_EDGE ( 'NONE', *, *, #533, .T. ) ;
#470 = CARTESIAN_POINT ( 'NONE',  ( 0.000000000000000000, -8.728703347107833388E-15, 2.500000000000000000 ) ) ;
#471 = DIRECTION ( 'NONE',  ( -0.000000000000000000, 3.491481338843133355E-15, -1.000000000000000000 ) ) ;
#472 = ORIENTED_EDGE ( 'NONE', *, *, #499, .T. ) ;
#473 = EDGE_LOOP ( 'NONE', ( #212, #534, #361, #480 ) ) ;
#474 = CARTESIAN_POINT ( 'NONE',  ( -1.788737087637458867, -9.838720426524538709, -2.500000000000034195 ) ) ;
#475 = LINE ( 'NONE', #172, #384 ) ;
#476 = ADVANCED_FACE ( 'NONE', ( #78 ), #435, .F. ) ;
#477 = DIRECTION ( 'NONE',  ( 0.000000000000000000, 1.000000000000000000, 3.469446951953614189E-15 ) ) ;
#478 = DIRECTION ( 'NONE',  ( 0.000000000000000000, -3.491481338843133355E-15, 1.000000000000000000 ) ) ;
#479 = CIRCLE ( 'NONE', #569, 5.000000000000000000 ) ;
#480 = ORIENTED_EDGE ( 'NONE', *, *, #640, .F. ) ;
#481 = DIRECTION ( 'NONE',  ( -0.000000000000000000, -3.491481338843133355E-15, 1.000000000000000000 ) ) ;
#482 = VERTEX_POINT ( 'NONE', #256 ) ;
#483 = AXIS2_PLACEMENT_3D ( 'NONE', #496, #336, #356 ) ;
#484 = CARTESIAN_POINT ( 'NONE',  ( 6.123233995736766282E-16, -4.999999999999991118, -2.500000000000015987 ) ) ;
#485 = LINE ( 'NONE', #142, #236 ) ;
#486 = EDGE_CURVE ( 'NONE', #183, #561, #544, .T. ) ;
#487 = COORDINATED_UNIVERSAL_TIME_OFFSET ( 8, 0, .BEHIND. ) ;
#488 = AXIS2_PLACEMENT_3D ( 'NONE', #137, #644, #185 ) ;
#489 = ORIENTED_EDGE ( 'NONE', *, *, #512, .T. ) ;
#490 = ORIENTED_EDGE ( 'NONE', *, *, #635, .T. ) ;
#491 = ADVANCED_FACE ( 'NONE', ( #127 ), #607, .F. ) ;
#492 = ORIENTED_EDGE ( 'NONE', *, *, #339, .F. ) ;
#493 = DIRECTION ( 'NONE',  ( -0.000000000000000000, 3.491481338843133355E-15, -1.000000000000000000 ) ) ;
#494 = EDGE_CURVE ( 'NONE', #370, #246, #254, .T. ) ;
#495 = PLANE ( 'NONE',  #225 ) ;
#496 = CARTESIAN_POINT ( 'NONE',  ( -80.00000000000041211, 305.0206611570247901, 2.500000000001065370 ) ) ;
#497 = DIRECTION ( 'NONE',  ( -0.000000000000000000, 3.491481338843133355E-15, -1.000000000000000000 ) ) ;
#498 = DIRECTION ( 'NONE',  ( -0.000000000000000000, 3.491481338843133355E-15, -1.000000000000000000 ) ) ;
#499 = EDGE_CURVE ( 'NONE', #505, #429, #447, .T. ) ;
#500 = CARTESIAN_POINT ( 'NONE',  ( 0.000000000000000000, 8.728703347107833388E-15, -2.500000000000000000 ) ) ;
#501 = CIRCLE ( 'NONE', #344, 10.00000000000005329 ) ;
#502 = DIRECTION ( 'NONE',  ( -0.000000000000000000, -3.491481338843133355E-15, 1.000000000000000000 ) ) ;
#503 = CC_DESIGN_APPROVAL ( #540, ( #102 ) ) ;
#504 = EDGE_CURVE ( 'NONE', #201, #232, #576, .T. ) ;
#505 = VERTEX_POINT ( 'NONE', #484 ) ;
#506 = DIRECTION ( 'NONE',  ( 0.2425356250363361610, 3.387234435276045317E-15, -0.9701425001453310992 ) ) ;
#507 = ORIENTED_EDGE ( 'NONE', *, *, #242, .T. ) ;
#508 = VECTOR ( 'NONE', #560, 1000.000000000000000 ) ;
#509 = CARTESIAN_POINT ( 'NONE',  ( 0.000000000000000000, 9.077851480992146724E-15, -2.600000000000000089 ) ) ;
#510 = FACE_OUTER_BOUND ( 'NONE', #473, .T. ) ;
#511 = EDGE_LOOP ( 'NONE', ( #609, #388, #507, #417 ) ) ;
#512 = EDGE_CURVE ( 'NONE', #564, #108, #240, .T. ) ;
#513 = MECHANICAL_CONTEXT ( 'NONE', #213, 'mechanical' ) ;
#514 = CARTESIAN_POINT ( 'NONE',  ( 6.123233995736766282E-16, -5.000000000000059508, 16.84213562373093254 ) ) ;
#515 = CARTESIAN_POINT ( 'NONE',  ( 0.000000000000000000, 0.000000000000000000, 0.000000000000000000 ) ) ;
#516 = DIRECTION ( 'NONE',  ( 0.000000000000000000, 3.491481338843133355E-15, -1.000000000000000000 ) ) ;
#517 = ORIENTED_EDGE ( 'NONE', *, *, #504, .F. ) ;
#518 = EDGE_LOOP ( 'NONE', ( #545, #617, #440, #126 ) ) ;
#519 = AXIS2_PLACEMENT_3D ( 'NONE', #13, #416, #165 ) ;
#520 = CALENDAR_DATE ( 2026, 4, 8 ) ;
#521 = FACE_OUTER_BOUND ( 'NONE', #64, .T. ) ;
#522 = DIRECTION ( 'NONE',  ( 0.000000000000000000, -1.000000000000000000, -3.490890575942171394E-15 ) ) ;
#523 = ORIENTED_EDGE ( 'NONE', *, *, #369, .F. ) ;
#524 = CARTESIAN_POINT ( 'NONE',  ( -49.22359359558506497, -6.005748849535927469, 2.499999999999979128 ) ) ;
#525 = FACE_OUTER_BOUND ( 'NONE', #300, .T. ) ;
#526 = EDGE_CURVE ( 'NONE', #152, #196, #226, .T. ) ;
#527 = CARTESIAN_POINT ( 'NONE',  ( 0.000000000000000000, 4.999999999999991118, 2.600000000000017408 ) ) ;
#528 = SECURITY_CLASSIFICATION_LEVEL ( 'unclassified' ) ;
#529 = B_SPLINE_CURVE_WITH_KNOTS ( 'NONE', 3,
 ( #69, #21, #622, #383, #427, #536 ),
 .UNSPECIFIED., .F., .F.,
 ( 4, 2, 4 ),
 ( 1.409296014025916843E-17, 0.02755993520027340965, 0.05511987040054680542 ),
 .UNSPECIFIED. ) ;
#530 = ORIENTED_EDGE ( 'NONE', *, *, #182, .T. ) ;
#531 = CARTESIAN_POINT ( 'NONE',  ( -109.9050020206543081, 9.982447981150096794, -9.976250505163543281 ) ) ;
#532 = DATE_AND_TIME ( #122, #153 ) ;
#533 = EDGE_CURVE ( 'NONE', #100, #397, #192, .T. ) ;
#534 = ORIENTED_EDGE ( 'NONE', *, *, #549, .T. ) ;
#535 = CARTESIAN_POINT ( 'NONE',  ( -1.788737087637458867, -9.838720426524556473, 2.499999999999965805 ) ) ;
#536 = CARTESIAN_POINT ( 'NONE',  ( -55.45454545454541773, -5.000000000000041744, -2.577661584780889026 ) ) ;
#537 = CIRCLE ( 'NONE', #190, 300.0206611570247901 ) ;
#538 = APPROVAL_STATUS ( 'not_yet_approved' ) ;
#539 = ORIENTED_EDGE ( 'NONE', *, *, #360, .T. ) ;
#540 = APPROVAL ( #206, 'UNSPECIFIED' ) ;
#541 = CARTESIAN_POINT ( 'NONE',  ( -109.8574998546690580, 6.005748849535883949, 9.964374963667275154 ) ) ;
#542 = ORIENTED_EDGE ( 'NONE', *, *, #56, .F. ) ;
#543 = COORDINATED_UNIVERSAL_TIME_OFFSET ( 8, 0, .BEHIND. ) ;
#544 = CIRCLE ( 'NONE', #44, 10.00000000000005329 ) ;
#545 = ORIENTED_EDGE ( 'NONE', *, *, #549, .F. ) ;
#546 = EDGE_LOOP ( 'NONE', ( #614, #472 ) ) ;
#547 = AXIS2_PLACEMENT_3D ( 'NONE', #394, #288, #36 ) ;
#548 = CARTESIAN_POINT ( 'NONE',  ( -109.9050020206545923, 9.982447981150023963, 9.976250505163676507 ) ) ;
#549 = EDGE_CURVE ( 'NONE', #505, #9, #364, .T. ) ;
#550 = DIRECTION ( 'NONE',  ( -0.000000000000000000, 3.491481338843133355E-15, -1.000000000000000000 ) ) ;
#551 = CARTESIAN_POINT ( 'NONE',  ( -55.45454545454541773, -5.000000000000079048, 2.577661584780829074 ) ) ;
#552 = CARTESIAN_POINT ( 'NONE',  ( -55.45454545454541773, -5.000000000000041744, -2.577661584780889026 ) ) ;
#553 = AXIS2_PLACEMENT_3D ( 'NONE', #515, #399, #157 ) ;
#554 = AXIS2_PLACEMENT_3D ( 'NONE', #392, #593, #600 ) ;
#555 = DIRECTION ( 'NONE',  ( 0.000000000000000000, 3.491481338843133355E-15, -1.000000000000000000 ) ) ;
#556 = EDGE_CURVE ( 'NONE', #564, #183, #353, .T. ) ;
#557 = CARTESIAN_POINT ( 'NONE',  ( -109.8574998546691717, -9.973689178601897964, 9.964374963667250285 ) ) ;
#558 = LINE ( 'NONE', #541, #652 ) ;
#559 = CC_DESIGN_DATE_AND_TIME_ASSIGNMENT ( #116, #52, ( #233 ) ) ;
#560 = DIRECTION ( 'NONE',  ( -0.000000000000000000, 1.000000000000000000, 3.491481338843133355E-15 ) ) ;
#561 = VERTEX_POINT ( 'NONE', #203 ) ;
#562 = ORIENTED_EDGE ( 'NONE', *, *, #603, .F. ) ;
#563 = CARTESIAN_POINT ( 'NONE',  ( -1.788737087637471301, 9.838720426524535156, 2.500000000000034195 ) ) ;
#564 = VERTEX_POINT ( 'NONE', #155 ) ;
#565 = FACE_BOUND ( 'NONE', #546, .T. ) ;
#566 = CYLINDRICAL_SURFACE ( 'NONE', #31, 300.0206611570247901 ) ;
#567 = ADVANCED_FACE ( 'NONE', ( #525 ), #112, .F. ) ;
#568 = EDGE_LOOP ( 'NONE', ( #99, #310, #492, #77, #259 ) ) ;
#569 = AXIS2_PLACEMENT_3D ( 'NONE', #575, #168, #477 ) ;
#570 = APPLICATION_PROTOCOL_DEFINITION ( 'international standard', 'config_control_design', 1994, #445 ) ;
#571 = CARTESIAN_POINT ( 'NONE',  ( -55.45454545454541773, -5.000000000000079048, 2.577661584780829074 ) ) ;
#572 = ORIENTED_EDGE ( 'NONE', *, *, #242, .F. ) ;
#573 = EDGE_LOOP ( 'NONE', ( #402, #469, #291, #461 ) ) ;
#574 = PERSON_AND_ORGANIZATION_ROLE ( 'creator' ) ;
#575 = CARTESIAN_POINT ( 'NONE',  ( 0.000000000000000000, -9.077851480992146724E-15, 2.600000000000000089 ) ) ;
#576 = CIRCLE ( 'NONE', #290, 10.00000000000005329 ) ;
#577 = EDGE_LOOP ( 'NONE', ( #562, #113, #340, #329 ) ) ;
#578 = CLOSED_SHELL ( 'NONE', ( #597, #624, #387, #141, #84, #335, #194, #649, #491, #2, #590, #79, #121, #265, #188, #439, #567, #286, #476 ) ) ;
#579 = EDGE_CURVE ( 'NONE', #5, #83, #322, .T. ) ;
#580 = DIRECTION ( 'NONE',  ( 0.000000000000000000, 1.000000000000000000, 3.491481338843133355E-15 ) ) ;
#581 = DIRECTION ( 'NONE',  ( -0.000000000000000000, 3.491481338843133355E-15, -1.000000000000000000 ) ) ;
#582 = CARTESIAN_POINT ( 'NONE',  ( -55.45454545454541773, -5.000000000000041744, -2.577661584780889026 ) ) ;
#583 = PERSON_AND_ORGANIZATION_ROLE ( 'design_supplier' ) ;
#584 = CARTESIAN_POINT ( 'NONE',  ( 6.123233995736766282E-16, -5.000000000000008882, 2.499999999999982681 ) ) ;
#585 = DATE_TIME_ROLE ( 'classification_date' ) ;
#586 = VERTEX_POINT ( 'NONE', #613 ) ;
#587 = DIRECTION ( 'NONE',  ( 0.000000000000000000, -3.491481338843133355E-15, 1.000000000000000000 ) ) ;
#588 = AXIS2_PLACEMENT_3D ( 'NONE', #4, #516, #408 ) ;
#589 = AXIS2_PLACEMENT_3D ( 'NONE', #654, #411, #401 ) ;
#590 = ADVANCED_FACE ( 'NONE', ( #377 ), #66, .T. ) ;
#591 = ORIENTED_EDGE ( 'NONE', *, *, #533, .F. ) ;
#592 = CARTESIAN_POINT ( 'NONE',  ( 0.000000000000000000, 10.00000000000004619, 2.500000000000035083 ) ) ;
#593 = DIRECTION ( 'NONE',  ( -0.000000000000000000, 3.491481338843133355E-15, -1.000000000000000000 ) ) ;
#594 = DIRECTION ( 'NONE',  ( 0.000000000000000000, -3.491481338843133355E-15, 1.000000000000000000 ) ) ;
#595 = ORIENTED_EDGE ( 'NONE', *, *, #504, .T. ) ;
#596 = CIRCLE ( 'NONE', #323, 5.000000000000000000 ) ;
#597 = ADVANCED_FACE ( 'NONE', ( #169 ), #106, .T. ) ;
#598 = CARTESIAN_POINT ( 'NONE',  ( -110.0000000000000000, 10.00000000000003197, 10.00000000000009948 ) ) ;
#599 = PRODUCT_DEFINITION_SHAPE ( 'NONE', 'NONE',  #233 ) ;
#600 = DIRECTION ( 'NONE',  ( 0.000000000000000000, 1.000000000000000000, 3.469446951953614189E-15 ) ) ;
#601 = AXIS2_PLACEMENT_3D ( 'NONE', #191, #72, #275 ) ;
#602 = CARTESIAN_POINT ( 'NONE',  ( 6.123233995736766282E-16, -4.999999999999991118, -2.600000000000017408 ) ) ;
#603 = EDGE_CURVE ( 'NONE', #561, #201, #475, .T. ) ;
#604 = CARTESIAN_POINT ( 'NONE',  ( 0.000000000000000000, 5.000000000000008882, -2.499999999999981348 ) ) ;
#605 = CARTESIAN_POINT ( 'NONE',  ( 1.224646799147359765E-15, -10.00000000000004619, -2.500000000000035083 ) ) ;
#606 = CIRCLE ( 'NONE', #95, 5.000000000000000000 ) ;
#607 = CYLINDRICAL_SURFACE ( 'NONE', #27, 300.0206611570247333 ) ;
#608 = CARTESIAN_POINT ( 'NONE',  ( 0.000000000000000000, -8.728703347107833388E-15, 2.500000000000000000 ) ) ;
#609 = ORIENTED_EDGE ( 'NONE', *, *, #23, .T. ) ;
#610 = CARTESIAN_POINT ( 'NONE',  ( -109.8574998546688590, 9.973689178601842897, -9.964374963667184559 ) ) ;
#611 = EDGE_LOOP ( 'NONE', ( #523, #572 ) ) ;
#612 = CARTESIAN_POINT ( 'NONE',  ( -49.22359359558495129, -5.064710457543633026, -2.500000000000017764 ) ) ;
#613 = CARTESIAN_POINT ( 'NONE',  ( 6.123233995736766282E-16, -5.000000000000008882, 2.599999999999982325 ) ) ;
#614 = ORIENTED_EDGE ( 'NONE', *, *, #449, .T. ) ;
#615 = COORDINATED_UNIVERSAL_TIME_OFFSET ( 8, 0, .BEHIND. ) ;
#616 = CARTESIAN_POINT ( 'NONE',  ( -69.78638187485488231, 5.171070360643922115, -3.139154545507315763 ) ) ;
#617 = ORIENTED_EDGE ( 'NONE', *, *, #449, .F. ) ;
#618 = VECTOR ( 'NONE', #357, 1000.000000000000000 ) ;
#619 = ORIENTED_EDGE ( 'NONE', *, *, #182, .F. ) ;
#620 = APPROVAL_STATUS ( 'not_yet_approved' ) ;
#621 = CARTESIAN_POINT ( 'NONE',  ( -92.00471061452691401, -7.095540136224540717, 6.017752706547701003 ) ) ;
#622 = CARTESIAN_POINT ( 'NONE',  ( -92.00471061452678612, -7.095540136224514072, -6.017752706547789820 ) ) ;
#623 = ORIENTED_EDGE ( 'NONE', *, *, #326, .F. ) ;
#624 = ADVANCED_FACE ( 'NONE', ( #510 ), #54, .T. ) ;
#625 = DIRECTION ( 'NONE',  ( 0.000000000000000000, 1.000000000000000000, 3.512815038853015828E-15 ) ) ;
#626 = AXIS2_PLACEMENT_3D ( 'NONE', #146, #555, #308 ) ;
#627 = DIRECTION ( 'NONE',  ( 1.000000000000000000, 0.000000000000000000, -0.000000000000000000 ) ) ;
#628 =( BOUNDED_CURVE ( )  B_SPLINE_CURVE ( 3, ( #348, #81, #548, #293 ),
 .UNSPECIFIED., .F., .F. ) 
 B_SPLINE_CURVE_WITH_KNOTS ( ( 4, 4 ),
 ( 4.529566576664127986, 4.530049572627839360 ),
 .UNSPECIFIED. ) 
 CURVE ( )  GEOMETRIC_REPRESENTATION_ITEM ( )  RATIONAL_B_SPLINE_CURVE ( ( 1.000000000000000000, 0.9999999805595749525, 0.9999999805595749525, 1.000000000000000000 ) ) 
 REPRESENTATION_ITEM ( '' )  );
#629 = APPROVAL ( #620, 'UNSPECIFIED' ) ;
#630 = CARTESIAN_POINT ( 'NONE',  ( 0.000000000000000000, -8.728703347107833388E-15, 2.500000000000000000 ) ) ;
#631 = PERSON_AND_ORGANIZATION ( #380, #410 ) ;
#632 = ORIENTED_EDGE ( 'NONE', *, *, #346, .T. ) ;
#633 = DIRECTION ( 'NONE',  ( 0.000000000000000000, -1.000000000000000000, -3.469446951953614189E-15 ) ) ;
#634 = FACE_OUTER_BOUND ( 'NONE', #457, .T. ) ;
#635 = EDGE_CURVE ( 'NONE', #397, #38, #529, .T. ) ;
#636 = DIRECTION ( 'NONE',  ( -0.000000000000000000, 1.000000000000000000, 3.491481338843133355E-15 ) ) ;
#637 = CC_DESIGN_APPROVAL ( #629, ( #233 ) ) ;
#638 = AXIS2_PLACEMENT_3D ( 'NONE', #180, #550, #386 ) ;
#639 = CARTESIAN_POINT ( 'NONE',  ( -110.0000000000000000, 10.00000000000010125, -10.00000000000003020 ) ) ;
#640 = EDGE_CURVE ( 'NONE', #429, #29, #76, .T. ) ;
#641 = CARTESIAN_POINT ( 'NONE',  ( -51.30551943593690112, -5.021462841835720781, 2.499999999999982236 ) ) ;
#642 = ORIENTED_EDGE ( 'NONE', *, *, #423, .T. ) ;
#643 = EDGE_CURVE ( 'NONE', #29, #9, #59, .T. ) ;
#644 = DIRECTION ( 'NONE',  ( -0.000000000000000000, 3.491481338843133355E-15, -1.000000000000000000 ) ) ;
#645 = LOCAL_TIME ( 10, 52, 38.00000000000000000, #133 ) ;
#646 = DIRECTION ( 'NONE',  ( -0.000000000000000000, 3.491481338843133355E-15, -1.000000000000000000 ) ) ;
#647 = CYLINDRICAL_SURFACE ( 'NONE', #488, 10.00000000000005329 ) ;
#648 = AXIS2_PLACEMENT_3D ( 'NONE', #164, #327, #580 ) ;
#649 = ADVANCED_FACE ( 'NONE', ( #97 ), #566, .F. ) ;
#650 = CARTESIAN_POINT ( 'NONE',  ( -49.22359359558506497, 5.064710457543633026, 2.500000000000017764 ) ) ;
#651 = CC_DESIGN_PERSON_AND_ORGANIZATION_ASSIGNMENT ( #176, #583, ( #102 ) ) ;
#652 = VECTOR ( 'NONE', #636, 1000.000000000000000 ) ;
#653 = CARTESIAN_POINT ( 'NONE',  ( 0.000000000000000000, 8.728703347107833388E-15, -2.500000000000000000 ) ) ;
#654 = CARTESIAN_POINT ( 'NONE',  ( 0.000000000000000000, -8.728703347107833388E-15, 2.500000000000000000 ) ) ;
#655 = CARTESIAN_POINT ( 'NONE',  ( -110.0000000000000000, -10.00000000000009948, 10.00000000000003020 ) ) ;
#656 = CARTESIAN_POINT ( 'NONE',  ( -109.8574998546690011, -9.973689178601828687, -9.964374963667282259 ) ) ;
ENDSEC;
END-ISO-10303-21;
