ISO-10303-21;
HEADER;
FILE_DESCRIPTION (( 'STEP AP203' ),
    '1' );
FILE_NAME ('DroneArmB.STEP',
    '2026-08-06T18:04:22',
    ( '' ),
    ( '' ),
    'SwSTEP 2.0',
    'SolidWorks 2026',
    '' );
FILE_SCHEMA (( 'CONFIG_CONTROL_DESIGN' ));
ENDSEC;

DATA;
#1 = ORIENTED_EDGE ( 'NONE', *, *, #291, .T. ) ;
#2 = AXIS2_PLACEMENT_3D ( 'NONE', #58, #632, #698 ) ;
#3 = ADVANCED_FACE ( 'NONE', ( #239, #700 ), #642, .F. ) ;
#4 = ORIENTED_EDGE ( 'NONE', *, *, #107, .T. ) ;
#5 = CARTESIAN_POINT ( 'NONE',  ( 102.5000000000000000, 10.00000000000003020, -3.007931320074421766 ) ) ;
#6 = PRODUCT_RELATED_PRODUCT_CATEGORY ( 'detail', '', ( #21 ) ) ;
#7 = CARTESIAN_POINT ( 'NONE',  ( 52.84430639647993644, 20.00000000000007461, -6.965248203320582476 ) ) ;
#8 = APPROVAL ( #116, 'UNSPECIFIED' ) ;
#9 = ORIENTED_EDGE ( 'NONE', *, *, #218, .T. ) ;
#10 = LINE ( 'NONE', #511, #557 ) ;
#11 = CARTESIAN_POINT ( 'NONE',  ( 99.99999999999998579, 20.00000000000003197, -3.054482816791498578 ) ) ;
#12 = VERTEX_POINT ( 'NONE', #350 ) ;
#13 = ORIENTED_EDGE ( 'NONE', *, *, #454, .F. ) ;
#14 = VECTOR ( 'NONE', #718, 1000.000000000000227 ) ;
#15 = CARTESIAN_POINT ( 'NONE',  ( 3.000000000000002665, 20.00000000000003197, -2.999999999999785061 ) ) ;
#16 = CARTESIAN_POINT ( 'NONE',  ( 107.5000000000000000, 9.999999999999849010, 14.34213562373106399 ) ) ;
#17 = VERTEX_POINT ( 'NONE', #345 ) ;
#18 = ADVANCED_FACE ( 'NONE', ( #290 ), #60, .F. ) ;
#19 = B_SPLINE_CURVE_WITH_KNOTS ( 'NONE', 3,
 ( #397, #59, #693, #456, #360, #631, #134, #222, #242, #5 ),
 .UNSPECIFIED., .F., .F.,
 ( 4, 2, 2, 2, 4 ),
 ( 0.000000000000000000, 0.001004063434792842489, 0.002008126869585684978, 0.003012190304378525082, 0.004016253739171365619 ),
 .UNSPECIFIED. ) ;
#20 = DIRECTION ( 'NONE',  ( 2.276539994720219657E-17, 1.047444401652940007E-14, -1.000000000000000000 ) ) ;
#21 = PRODUCT ( 'DroneArmB', 'DroneArmB', '', ( #687 ) ) ;
#22 = DIRECTION ( 'NONE',  ( 1.000000000000000000, 0.000000000000000000, 0.000000000000000000 ) ) ;
#23 = ORIENTED_EDGE ( 'NONE', *, *, #368, .F. ) ;
#24 = ORIENTED_EDGE ( 'NONE', *, *, #710, .F. ) ;
#25 = ORIENTED_EDGE ( 'NONE', *, *, #384, .F. ) ;
#26 = CARTESIAN_POINT ( 'NONE',  ( 107.5000000000000000, 9.999999999999849010, 14.34213562373106399 ) ) ;
#27 = CARTESIAN_POINT ( 'NONE',  ( 73.83679688464884805, 3.142333204958820020E-14, -3.000000000000000000 ) ) ;
#28 = ORIENTED_EDGE ( 'NONE', *, *, #650, .F. ) ;
#29 = ORIENTED_EDGE ( 'NONE', *, *, #675, .T. ) ;
#30 = DIRECTION ( 'NONE',  ( -7.958930308643600935E-17, 1.047444401652940007E-14, -1.000000000000000000 ) ) ;
#31 = AXIS2_PLACEMENT_3D ( 'NONE', #513, #274, #444 ) ;
#32 = DIRECTION ( 'NONE',  ( -0.000000000000000000, 1.000000000000000000, 1.047444401652940007E-14 ) ) ;
#33 = AXIS2_PLACEMENT_3D ( 'NONE', #297, #532, #690 ) ;
#34 = ORIENTED_EDGE ( 'NONE', *, *, #529, .F. ) ;
#35 = ORIENTED_EDGE ( 'NONE', *, *, #45, .T. ) ;
#36 = VECTOR ( 'NONE', #671, 1000.000000000000000 ) ;
#37 = DIRECTION ( 'NONE',  ( -1.000000000000000000, -8.336536994934646098E-31, 7.958930308643600935E-17 ) ) ;
#38 = DIRECTION ( 'NONE',  ( 0.000000000000000000, -1.000000000000000000, -1.047444401652940007E-14 ) ) ;
#39 = EDGE_CURVE ( 'NONE', #518, #562, #241, .T. ) ;
#40 = EDGE_CURVE ( 'NONE', #725, #603, #753, .T. ) ;
#41 = DATE_AND_TIME ( #112, #564 ) ;
#42 = LOCAL_TIME ( 11, 4, 22.00000000000000000, #292 ) ;
#43 = LINE ( 'NONE', #492, #489 ) ;
#44 = AXIS2_PLACEMENT_3D ( 'NONE', #16, #198, #652 ) ;
#45 = EDGE_CURVE ( 'NONE', #708, #691, #630, .T. ) ;
#46 = APPROVAL_DATE_TIME ( #332, #624 ) ;
#47 = VECTOR ( 'NONE', #746, 1000.000000000000000 ) ;
#48 = CARTESIAN_POINT ( 'NONE',  ( 102.5000000000000000, 9.999999999999849010, 14.34213562373106399 ) ) ;
#49 = DIRECTION ( 'NONE',  ( 0.000000000000000000, 0.000000000000000000, 1.000000000000000000 ) ) ;
#50 = DIRECTION ( 'NONE',  ( -2.662275650320332403E-17, 1.047444401652940007E-14, -1.000000000000000000 ) ) ;
#51 = ORIENTED_EDGE ( 'NONE', *, *, #384, .T. ) ;
#52 = CARTESIAN_POINT ( 'NONE',  ( 5.371213549516150820, 1.668829057712424909E-13, -15.93238796330284224 ) ) ;
#53 = DIRECTION ( 'NONE',  ( -1.000000000000000000, 3.005171068894198579E-31, -2.869050676247665120E-17 ) ) ;
#54 = CARTESIAN_POINT ( 'NONE',  ( 104.0425087087336209, 20.00000000000003197, -2.999999999999794387 ) ) ;
#55 = DIRECTION ( 'NONE',  ( -0.000000000000000000, 1.000000000000000000, 1.047444401652940007E-14 ) ) ;
#56 = LINE ( 'NONE', #119, #734 ) ;
#57 = EDGE_CURVE ( 'NONE', #430, #12, #128, .T. ) ;
#58 = CARTESIAN_POINT ( 'NONE',  ( 52.47309284696377318, 20.00000000000005329, -4.999999999999788614 ) ) ;
#59 = CARTESIAN_POINT ( 'NONE',  ( 103.7972561945063461, 6.622877942348240232, -2.999999999999942268 ) ) ;
#60 = PLANE ( 'NONE',  #395 ) ;
#61 = EDGE_CURVE ( 'NONE', #387, #206, #487, .T. ) ;
#62 = UNCERTAINTY_MEASURE_WITH_UNIT (LENGTH_MEASURE( 1.000000000000000082E-05 ), #510, 'distance_accuracy_value', 'NONE');
#63 = ORIENTED_EDGE ( 'NONE', *, *, #493, .T. ) ;
#64 = AXIS2_PLACEMENT_3D ( 'NONE', #468, #429, #151 ) ;
#65 = DIRECTION ( 'NONE',  ( 2.276539994720219657E-17, 1.047444401652940007E-14, -1.000000000000000000 ) ) ;
#66 = VECTOR ( 'NONE', #289, 1000.000000000000000 ) ;
#67 = EDGE_CURVE ( 'NONE', #466, #378, #229, .T. ) ;
#68 = CIRCLE ( 'NONE', #197, 2.000000000000001776 ) ;
#69 = VECTOR ( 'NONE', #203, 1000.000000000000000 ) ;
#70 = DIRECTION ( 'NONE',  ( -1.000000000000000000, 0.000000000000000000, 0.000000000000000000 ) ) ;
#71 = ORIENTED_EDGE ( 'NONE', *, *, #650, .T. ) ;
#72 = DIRECTION ( 'NONE',  ( -1.000000000000000000, 0.000000000000000000, 0.000000000000000000 ) ) ;
#73 = DIRECTION ( 'NONE',  ( 2.276539994720219657E-17, 1.047444401652940007E-14, -1.000000000000000000 ) ) ;
#74 = CC_DESIGN_APPROVAL ( #96, ( #498 ) ) ;
#75 = VERTEX_POINT ( 'NONE', #584 ) ;
#76 = DIRECTION ( 'NONE',  ( -0.000000000000000000, -1.000000000000000000, -1.047444401652940007E-14 ) ) ;
#77 = LINE ( 'NONE', #87, #365 ) ;
#78 = EDGE_LOOP ( 'NONE', ( #457, #9, #28, #649 ) ) ;
#79 = ORIENTED_EDGE ( 'NONE', *, *, #361, .F. ) ;
#80 = EDGE_LOOP ( 'NONE', ( #165, #426, #25, #442 ) ) ;
#81 = CARTESIAN_POINT ( 'NONE',  ( 52.47309284696377318, 20.00000000000003197, -2.999999999999789058 ) ) ;
#82 = CARTESIAN_POINT ( 'NONE',  ( 5.000000000000000888, 20.00000000000014566, -13.96713975998183521 ) ) ;
#83 = ORIENTED_EDGE ( 'NONE', *, *, #227, .F. ) ;
#84 = ORIENTED_EDGE ( 'NONE', *, *, #356, .F. ) ;
#85 = EDGE_CURVE ( 'NONE', #75, #307, #453, .T. ) ;
#86 = CARTESIAN_POINT ( 'NONE',  ( 5.371213549516150820, 1.668829057712424909E-13, -15.93238796330284224 ) ) ;
#87 = CARTESIAN_POINT ( 'NONE',  ( 3.000000000000002220, 5.237222008264693722E-14, -4.999999999999993783 ) ) ;
#88 = B_SPLINE_CURVE_WITH_KNOTS ( 'NONE', 3,
 ( #503, #565, #735, #719, #167, #334, #433, #106, #505, #210 ),
 .UNSPECIFIED., .F., .F.,
 ( 4, 2, 2, 2, 4 ),
 ( 0.004016253739171365619, 0.005019517488045411625, 0.006022781236919457631, 0.007026044985793503637, 0.008029308734667549644 ),
 .UNSPECIFIED. ) ;
#89 = ORIENTED_EDGE ( 'NONE', *, *, #194, .T. ) ;
#90 = EDGE_LOOP ( 'NONE', ( #155, #472 ) ) ;
#91 = LINE ( 'NONE', #496, #69 ) ;
#92 = DIRECTION ( 'NONE',  ( -1.000000000000000000, 0.000000000000000000, -3.469446951953615421E-17 ) ) ;
#93 = VERTEX_POINT ( 'NONE', #512 ) ;
#94 = CARTESIAN_POINT ( 'NONE',  ( 3.000000000000000444, 20.00000000000014566, -13.96713975998183344 ) ) ;
#95 = PRODUCT_DEFINITION ( 'UNKNOWN', '', #458, #283 ) ;
#96 = APPROVAL ( #459, 'UNSPECIFIED' ) ;
#97 = LINE ( 'NONE', #101, #616 ) ;
#98 = VECTOR ( 'NONE', #470, 1000.000000000000000 ) ;
#99 = AXIS2_PLACEMENT_3D ( 'NONE', #15, #428, #431 ) ;
#100 = PERSON_AND_ORGANIZATION ( #497, #105 ) ;
#101 = CARTESIAN_POINT ( 'NONE',  ( 104.0425087087336209, 20.00000000000003197, -2.999999999999794387 ) ) ;
#102 = VERTEX_POINT ( 'NONE', #747 ) ;
#103 = VERTEX_POINT ( 'NONE', #639 ) ;
#104 = CALENDAR_DATE ( 2026, 6, 8 ) ;
#105 = ORGANIZATION ( 'UNSPECIFIED', 'UNSPECIFIED', '' ) ;
#106 = CARTESIAN_POINT ( 'NONE',  ( 103.5793148165331985, 13.12119368823417176, -3.000592629481371620 ) ) ;
#107 = EDGE_CURVE ( 'NONE', #103, #137, #686, .T. ) ;
#108 = PERSON_AND_ORGANIZATION ( #497, #105 ) ;
#109 = DIRECTION ( 'NONE',  ( -0.9826241016603983747, 1.944127771292040869E-15, -0.1856067747580751881 ) ) ;
#110 = CLOSED_SHELL ( 'NONE', ( #188, #251, #629, #594, #393, #3, #147, #140, #18, #117, #634, #685, #731, #572, #230, #186, #352, #460, #159, #665, #534 ) ) ;
#111 = ORIENTED_EDGE ( 'NONE', *, *, #748, .T. ) ;
#112 = CALENDAR_DATE ( 2026, 6, 8 ) ;
#113 = EDGE_CURVE ( 'NONE', #93, #371, #450, .T. ) ;
#114 = CARTESIAN_POINT ( 'NONE',  ( 52.47309284696377318, 5.237222008264698140E-14, -4.999999999999998224 ) ) ;
#115 = DIRECTION ( 'NONE',  ( -0.1856067747580752714, -1.029244114213433758E-14, 0.9826241016603984857 ) ) ;
#116 = APPROVAL_STATUS ( 'not_yet_approved' ) ;
#117 = ADVANCED_FACE ( 'NONE', ( #348 ), #398, .T. ) ;
#118 = CC_DESIGN_APPROVAL ( #8, ( #95 ) ) ;
#119 = CARTESIAN_POINT ( 'NONE',  ( 54.47309284696378029, 20.00000000000005329, -4.999999999999788614 ) ) ;
#120 = CARTESIAN_POINT ( 'NONE',  ( 107.5000000000000000, 10.00000000000003375, -3.099999999999905498 ) ) ;
#121 = CARTESIAN_POINT ( 'NONE',  ( 8.834806028215056121E-17, 3.247077645124127904E-14, -3.100000000000013411 ) ) ;
#122 = VECTOR ( 'NONE', #139, 1000.000000000000000 ) ;
#123 = CARTESIAN_POINT ( 'NONE',  ( 5.000000000000002665, 5.237222008264693722E-14, -4.999999999999993783 ) ) ;
#124 = DATE_AND_TIME ( #519, #42 ) ;
#125 = CARTESIAN_POINT ( 'NONE',  ( 3.000000000000000000, 20.00000000000017053, -16.38028385598901693 ) ) ;
#126 = PERSON_AND_ORGANIZATION_ROLE ( 'classification_officer' ) ;
#127 = B_SPLINE_CURVE_WITH_KNOTS ( 'NONE', 3,
 ( #475, #247, #664, #316, #658, #11 ),
 .UNSPECIFIED., .F., .F.,
 ( 4, 2, 4 ),
 ( 0.000000000000000000, 0.002258000430957694902, 0.004516000861915389804 ),
 .UNSPECIFIED. ) ;
#128 = LINE ( 'NONE', #54, #66 ) ;
#129 = CALENDAR_DATE ( 2026, 6, 8 ) ;
#130 = DIRECTION ( 'NONE',  ( 0.000000000000000000, 1.000000000000000000, 1.047444401652940007E-14 ) ) ;
#131 = EDGE_LOOP ( 'NONE', ( #390, #207, #545, #607 ) ) ;
#132 = APPROVAL_DATE_TIME ( #465, #96 ) ;
#133 = AXIS2_PLACEMENT_3D ( 'NONE', #641, #526, #403 ) ;
#134 = CARTESIAN_POINT ( 'NONE',  ( 102.6694629008918156, 8.666196814146715610, -3.006269098862974776 ) ) ;
#135 = CIRCLE ( 'NONE', #706, 5.000000000000004441 ) ;
#136 = CARTESIAN_POINT ( 'NONE',  ( 52.47309284696377318, 20.00000000000005329, -4.999999999999788614 ) ) ;
#137 = VERTEX_POINT ( 'NONE', #342 ) ;
#138 = ORIENTED_EDGE ( 'NONE', *, *, #618, .F. ) ;
#139 = DIRECTION ( 'NONE',  ( -0.000000000000000000, -1.000000000000000000, -1.047444401652940007E-14 ) ) ;
#140 = ADVANCED_FACE ( 'NONE', ( #581 ), #299, .F. ) ;
#141 = DIRECTION ( 'NONE',  ( 0.000000000000000000, 1.000000000000000000, 1.047444401652940007E-14 ) ) ;
#142 = ORIENTED_EDGE ( 'NONE', *, *, #61, .T. ) ;
#143 = ORIENTED_EDGE ( 'NONE', *, *, #524, .T. ) ;
#144 = ORIENTED_EDGE ( 'NONE', *, *, #356, .T. ) ;
#145 = CARTESIAN_POINT ( 'NONE',  ( 101.2557547161529925, -0.8547601649149781933, -3.024375240774356488 ) ) ;
#146 = CARTESIAN_POINT ( 'NONE',  ( 107.5000000000000000, 9.999999999999849010, 14.34213562373106399 ) ) ;
#147 = ADVANCED_FACE ( 'NONE', ( #410 ), #643, .F. ) ;
#148 = VERTEX_POINT ( 'NONE', #7 ) ;
#149 = ORIENTED_EDGE ( 'NONE', *, *, #67, .T. ) ;
#150 = LINE ( 'NONE', #543, #298 ) ;
#151 = DIRECTION ( 'NONE',  ( -1.000000000000000000, 0.000000000000000000, 0.000000000000000000 ) ) ;
#152 = ORIENTED_EDGE ( 'NONE', *, *, #675, .F. ) ;
#153 = CARTESIAN_POINT ( 'NONE',  ( 5.000000000000000888, 20.00000000000014566, -13.96713975998183521 ) ) ;
#154 = DIRECTION ( 'NONE',  ( -2.662275650320332403E-17, 1.047444401652940007E-14, -1.000000000000000000 ) ) ;
#155 = ORIENTED_EDGE ( 'NONE', *, *, #375, .T. ) ;
#156 = ORIENTED_EDGE ( 'NONE', *, *, #420, .F. ) ;
#157 = EDGE_CURVE ( 'NONE', #170, #562, #127, .T. ) ;
#158 = FACE_OUTER_BOUND ( 'NONE', #441, .T. ) ;
#159 = ADVANCED_FACE ( 'NONE', ( #362 ), #358, .F. ) ;
#160 = DIRECTION ( 'NONE',  ( 2.276539994720219657E-17, 1.047444401652940007E-14, -1.000000000000000000 ) ) ;
#161 = VERTEX_POINT ( 'NONE', #414 ) ;
#162 = DIRECTION ( 'NONE',  ( 1.000000000000000000, 8.336536994934646098E-31, -7.958930308643600935E-17 ) ) ;
#163 = CARTESIAN_POINT ( 'NONE',  ( 0.000000000000000000, 20.00000000000000000, 2.094888803305880013E-13 ) ) ;
#164 = ORIENTED_EDGE ( 'NONE', *, *, #308, .F. ) ;
#165 = ORIENTED_EDGE ( 'NONE', *, *, #517, .F. ) ;
#166 = APPROVAL_ROLE ( '' ) ;
#167 = CARTESIAN_POINT ( 'NONE',  ( 102.7692063687698294, 11.65273263600710685, -3.005347058005711336 ) ) ;
#168 = CARTESIAN_POINT ( 'NONE',  ( 102.6032407327759444, -1.525544068785925633, -3.005391672138424397 ) ) ;
#169 = CARTESIAN_POINT ( 'NONE',  ( 112.5000000000000000, 10.00000000000003197, -3.099999999999905498 ) ) ;
#170 = VERTEX_POINT ( 'NONE', #190 ) ;
#171 = VECTOR ( 'NONE', #243, 1000.000000000000000 ) ;
#172 = DATE_AND_TIME ( #621, #694 ) ;
#173 = CARTESIAN_POINT ( 'NONE',  ( 54.47309284696378029, 5.237222008264588330E-14, -4.999999999999893419 ) ) ;
#174 = AXIS2_PLACEMENT_3D ( 'NONE', #187, #235, #462 ) ;
#175 = CARTESIAN_POINT ( 'NONE',  ( 0.000000000000000000, 20.00000000000000000, 2.094888803305880013E-13 ) ) ;
#176 = DIRECTION ( 'NONE',  ( 1.000000000000000000, 0.000000000000000000, 0.000000000000000000 ) ) ;
#177 =( GEOMETRIC_REPRESENTATION_CONTEXT ( 3 ) GLOBAL_UNCERTAINTY_ASSIGNED_CONTEXT ( ( #62 ) ) GLOBAL_UNIT_ASSIGNED_CONTEXT ( ( #510, #740, #683 ) ) REPRESENTATION_CONTEXT ( 'NONE', 'WORKASPACE' ) );
#178 = LINE ( 'NONE', #593, #326 ) ;
#179 = DIRECTION ( 'NONE',  ( -0.000000000000000000, 1.000000000000000000, 1.047444401652940007E-14 ) ) ;
#180 = EDGE_CURVE ( 'NONE', #148, #708, #751, .T. ) ;
#181 = APPROVAL_PERSON_ORGANIZATION ( #574, #624, #166 ) ;
#182 = CARTESIAN_POINT ( 'NONE',  ( 52.47309284696377318, 5.237222008264698140E-14, -4.999999999999998224 ) ) ;
#183 = EDGE_LOOP ( 'NONE', ( #721, #415, #202, #374 ) ) ;
#184 = CIRCLE ( 'NONE', #567, 5.000000000000004441 ) ;
#185 = PERSON_AND_ORGANIZATION ( #497, #105 ) ;
#186 = ADVANCED_FACE ( 'NONE', ( #548 ), #605, .T. ) ;
#187 = CARTESIAN_POINT ( 'NONE',  ( 104.0425087087336351, 1.602589934528998172E-12, -153.0000000000000000 ) ) ;
#188 = ADVANCED_FACE ( 'NONE', ( #421 ), #530, .F. ) ;
#189 = CARTESIAN_POINT ( 'NONE',  ( 99.99999999999998579, 19.99999999999963052, 35.35533905932758358 ) ) ;
#190 = CARTESIAN_POINT ( 'NONE',  ( 104.0425087087336209, 22.01231676117550506, -2.999999999999779732 ) ) ;
#191 = CARTESIAN_POINT ( 'NONE',  ( 0.000000000000000000, 20.00000000000020961, -19.99999999999979394 ) ) ;
#192 = DIRECTION ( 'NONE',  ( -0.1856067747580752159, -1.029244114213433758E-14, 0.9826241016603984857 ) ) ;
#193 = ORIENTED_EDGE ( 'NONE', *, *, #39, .F. ) ;
#194 = EDGE_CURVE ( 'NONE', #337, #93, #588, .T. ) ;
#195 = VECTOR ( 'NONE', #55, 1000.000000000000000 ) ;
#196 = FACE_OUTER_BOUND ( 'NONE', #591, .T. ) ;
#197 = AXIS2_PLACEMENT_3D ( 'NONE', #114, #357, #578 ) ;
#198 = DIRECTION ( 'NONE',  ( 2.276539994720219657E-17, 1.047444401652940007E-14, -1.000000000000000000 ) ) ;
#199 = ORIENTED_EDGE ( 'NONE', *, *, #597, .F. ) ;
#200 = LINE ( 'NONE', #372, #14 ) ;
#201 = CARTESIAN_POINT ( 'NONE',  ( 107.5000000000000000, 10.00000000000003197, -2.999999999999905409 ) ) ;
#202 = ORIENTED_EDGE ( 'NONE', *, *, #412, .T. ) ;
#203 = DIRECTION ( 'NONE',  ( 1.000000000000000000, 2.788585725584972414E-31, -2.662275650320332403E-17 ) ) ;
#204 = VECTOR ( 'NONE', #160, 1000.000000000000000 ) ;
#205 = CYLINDRICAL_SURFACE ( 'NONE', #64, 5.000000000000004441 ) ;
#206 = VERTEX_POINT ( 'NONE', #478 ) ;
#207 = ORIENTED_EDGE ( 'NONE', *, *, #339, .F. ) ;
#208 = CARTESIAN_POINT ( 'NONE',  ( 3.000000000000002665, 20.00000000000003197, -2.999999999999785061 ) ) ;
#209 = VECTOR ( 'NONE', #522, 1000.000000000000000 ) ;
#210 = CARTESIAN_POINT ( 'NONE',  ( 104.0425087087336209, 13.61189063660812160, -2.999999999999867661 ) ) ;
#211 = EDGE_LOOP ( 'NONE', ( #737, #370, #482, #476, #382 ) ) ;
#212 = ORIENTED_EDGE ( 'NONE', *, *, #343, .T. ) ;
#213 = CARTESIAN_POINT ( 'NONE',  ( 3.000000000000002665, 3.142333204958814340E-14, -2.999999999999994227 ) ) ;
#214 = DIRECTION ( 'NONE',  ( 2.869050676247665120E-17, 1.047444401652940007E-14, -1.000000000000000000 ) ) ;
#215 = CC_DESIGN_APPROVAL ( #624, ( #458 ) ) ;
#216 = CARTESIAN_POINT ( 'NONE',  ( 0.000000000000000000, 2.094888803305880013E-13, -20.00000000000000000 ) ) ;
#217 = CARTESIAN_POINT ( 'NONE',  ( 112.5000000000000000, 9.999999999999998224, 0.1000000000001022710 ) ) ;
#218 = EDGE_CURVE ( 'NONE', #257, #103, #77, .T. ) ;
#219 = CARTESIAN_POINT ( 'NONE',  ( 52.47309284696377318, 3.836222595349540964E-14, -2.999999999999998224 ) ) ;
#220 = DIRECTION ( 'NONE',  ( -0.9826241016603983747, 1.944127771292040869E-15, -0.1856067747580751881 ) ) ;
#221 = ORIENTED_EDGE ( 'NONE', *, *, #517, .T. ) ;
#222 = CARTESIAN_POINT ( 'NONE',  ( 102.5343479557830051, 9.325152328138853974, -3.007566805600485171 ) ) ;
#223 = EDGE_CURVE ( 'NONE', #609, #422, #697, .T. ) ;
#224 = VERTEX_POINT ( 'NONE', #539 ) ;
#225 = FACE_OUTER_BOUND ( 'NONE', #550, .T. ) ;
#226 = AXIS2_PLACEMENT_3D ( 'NONE', #507, #566, #338 ) ;
#227 = EDGE_CURVE ( 'NONE', #137, #17, #311, .T. ) ;
#228 = VECTOR ( 'NONE', #220, 1000.000000000000227 ) ;
#229 = LINE ( 'NONE', #407, #586 ) ;
#230 = ADVANCED_FACE ( 'NONE', ( #544 ), #533, .T. ) ;
#231 = CARTESIAN_POINT ( 'NONE',  ( 104.0425087087336209, -2.012316761175442004, -3.000000000000031530 ) ) ;
#232 = FACE_OUTER_BOUND ( 'NONE', #80, .T. ) ;
#233 = EDGE_LOOP ( 'NONE', ( #199, #739, #35, #670, #495, #335, #535 ) ) ;
#234 = COORDINATED_UNIVERSAL_TIME_OFFSET ( 8, 0, .BEHIND. ) ;
#235 = DIRECTION ( 'NONE',  ( -0.000000000000000000, 1.000000000000000000, 1.047444401652940007E-14 ) ) ;
#236 = AXIS2_PLACEMENT_3D ( 'NONE', #82, #306, #471 ) ;
#237 = EDGE_LOOP ( 'NONE', ( #29, #254, #661, #309, #149 ) ) ;
#238 = PERSON_AND_ORGANIZATION ( #497, #105 ) ;
#239 = FACE_BOUND ( 'NONE', #90, .T. ) ;
#240 = SECURITY_CLASSIFICATION_LEVEL ( 'unclassified' ) ;
#241 = LINE ( 'NONE', #189, #209 ) ;
#242 = CARTESIAN_POINT ( 'NONE',  ( 102.5000000000000284, 9.665093297469425693, -3.007931320074443082 ) ) ;
#243 = DIRECTION ( 'NONE',  ( 1.000000000000000000, 8.336536994934646098E-31, -7.958930308643600935E-17 ) ) ;
#244 = ORIENTED_EDGE ( 'NONE', *, *, #614, .T. ) ;
#245 = LINE ( 'NONE', #405, #47 ) ;
#246 = PRODUCT_DEFINITION_SHAPE ( 'NONE', 'NONE',  #95 ) ;
#247 = CARTESIAN_POINT ( 'NONE',  ( 103.3070573619692141, 21.80063264751589003, -2.999999999999775291 ) ) ;
#248 = AXIS2_PLACEMENT_3D ( 'NONE', #288, #344, #508 ) ;
#249 = ORIENTED_EDGE ( 'NONE', *, *, #330, .F. ) ;
#250 = EDGE_CURVE ( 'NONE', #75, #12, #184, .T. ) ;
#251 = ADVANCED_FACE ( 'NONE', ( #716 ), #205, .T. ) ;
#252 = DIRECTION ( 'NONE',  ( 1.000000000000000000, 0.000000000000000000, 0.000000000000000000 ) ) ;
#253 = DIRECTION ( 'NONE',  ( 2.869050676247665120E-17, 1.047444401652940007E-14, -1.000000000000000000 ) ) ;
#254 = ORIENTED_EDGE ( 'NONE', *, *, #39, .T. ) ;
#255 = FACE_OUTER_BOUND ( 'NONE', #131, .T. ) ;
#256 = DIRECTION ( 'NONE',  ( -1.000000000000000000, 0.000000000000000000, 0.000000000000000000 ) ) ;
#257 = VERTEX_POINT ( 'NONE', #703 ) ;
#258 = PLANE ( 'NONE',  #99 ) ;
#259 = CARTESIAN_POINT ( 'NONE',  ( 90.00000000000000000, 20.00000000000003197, -2.999999999999795719 ) ) ;
#260 = ORIENTED_EDGE ( 'NONE', *, *, #85, .T. ) ;
#261 = ORIENTED_EDGE ( 'NONE', *, *, #411, .T. ) ;
#262 = CARTESIAN_POINT ( 'NONE',  ( 54.47309284696378029, 20.00000000000005329, -4.999999999999893419 ) ) ;
#263 = VECTOR ( 'NONE', #65, 1000.000000000000000 ) ;
#264 = AXIS2_PLACEMENT_3D ( 'NONE', #613, #474, #728 ) ;
#265 = AXIS2_PLACEMENT_3D ( 'NONE', #266, #154, #377 ) ;
#266 = CARTESIAN_POINT ( 'NONE',  ( 115.0000000000000000, 20.00000000000000000, 0.1000000000002064376 ) ) ;
#267 = CIRCLE ( 'NONE', #689, 150.0000000000000000 ) ;
#268 = ORIENTED_EDGE ( 'NONE', *, *, #330, .T. ) ;
#269 = ORIENTED_EDGE ( 'NONE', *, *, #361, .T. ) ;
#270 = LINE ( 'NONE', #86, #36 ) ;
#271 = CARTESIAN_POINT ( 'NONE',  ( 76.20149249502236444, 5.872376320884750314E-14, -5.606384750940224038 ) ) ;
#272 = DATE_TIME_ROLE ( 'creation_date' ) ;
#273 = DIRECTION ( 'NONE',  ( 2.276539994720219657E-17, 1.047444401652940007E-14, -1.000000000000000000 ) ) ;
#274 = DIRECTION ( 'NONE',  ( 2.276539994720219657E-17, 1.047444401652940007E-14, -1.000000000000000000 ) ) ;
#275 = CIRCLE ( 'NONE', #369, 2.000000000000000000 ) ;
#276 = CARTESIAN_POINT ( 'NONE',  ( 0.000000000000000000, 0.000000000000000000, 0.000000000000000000 ) ) ;
#277 = EDGE_LOOP ( 'NONE', ( #321, #63, #152, #144 ) ) ;
#278 = LINE ( 'NONE', #501, #195 ) ;
#279 = APPLICATION_CONTEXT ( 'configuration controlled 3d designs of mechanical parts and assemblies' ) ;
#280 = EDGE_CURVE ( 'NONE', #224, #206, #445, .T. ) ;
#281 = CYLINDRICAL_SURFACE ( 'NONE', #248, 2.000000000000001776 ) ;
#282 = EDGE_LOOP ( 'NONE', ( #704, #84, #312, #598 ) ) ;
#283 = DESIGN_CONTEXT ( 'detailed design', #520, 'design' ) ;
#284 = DIRECTION ( 'NONE',  ( -1.000000000000000000, 0.000000000000000000, 0.000000000000000000 ) ) ;
#285 = CC_DESIGN_DATE_AND_TIME_ASSIGNMENT ( #124, #469, ( #498 ) ) ;
#286 = CARTESIAN_POINT ( 'NONE',  ( 104.0425087087336209, -2.012316761175442004, -3.000000000000031530 ) ) ;
#287 = DIRECTION ( 'NONE',  ( -1.000000000000000000, -2.788585725584972414E-31, 2.662275650320332403E-17 ) ) ;
#288 = CARTESIAN_POINT ( 'NONE',  ( 52.47309284696377318, 20.00000000000005329, -4.999999999999788614 ) ) ;
#289 = DIRECTION ( 'NONE',  ( -0.000000000000000000, 1.000000000000000000, 1.047444401652940007E-14 ) ) ;
#290 = FACE_OUTER_BOUND ( 'NONE', #282, .T. ) ;
#291 = EDGE_CURVE ( 'NONE', #307, #722, #521, .T. ) ;
#292 = COORDINATED_UNIVERSAL_TIME_OFFSET ( 8, 0, .BEHIND. ) ;
#293 = ORIENTED_EDGE ( 'NONE', *, *, #561, .F. ) ;
#294 = CIRCLE ( 'NONE', #481, 12.49999999999999645 ) ;
#295 = PERSON_AND_ORGANIZATION ( #497, #105 ) ;
#296 = DIRECTION ( 'NONE',  ( -1.000000000000000000, 0.000000000000000000, 0.000000000000000000 ) ) ;
#297 = CARTESIAN_POINT ( 'NONE',  ( 104.0425087087336351, 20.00000000000160227, -152.9999999999997726 ) ) ;
#298 = VECTOR ( 'NONE', #610, 1000.000000000000227 ) ;
#299 = PLANE ( 'NONE',  #324 ) ;
#300 = CARTESIAN_POINT ( 'NONE',  ( 5.000000000000002665, 20.00000000000005329, -4.999999999999784173 ) ) ;
#301 = AXIS2_PLACEMENT_3D ( 'NONE', #455, #49, #176 ) ;
#302 = EDGE_CURVE ( 'NONE', #161, #722, #438, .T. ) ;
#303 = DIRECTION ( 'NONE',  ( 0.000000000000000000, -1.000000000000000000, -1.047444401652940007E-14 ) ) ;
#304 = EDGE_LOOP ( 'NONE', ( #293, #156, #313, #449 ) ) ;
#305 = DIRECTION ( 'NONE',  ( -1.000000000000000000, 0.000000000000000000, 0.000000000000000000 ) ) ;
#306 = DIRECTION ( 'NONE',  ( 0.000000000000000000, -1.000000000000000000, -1.047444401652940007E-14 ) ) ;
#307 = VERTEX_POINT ( 'NONE', #169 ) ;
#308 = EDGE_CURVE ( 'NONE', #170, #430, #294, .T. ) ;
#309 = ORIENTED_EDGE ( 'NONE', *, *, #368, .T. ) ;
#310 = LINE ( 'NONE', #315, #399 ) ;
#311 = LINE ( 'NONE', #27, #171 ) ;
#312 = ORIENTED_EDGE ( 'NONE', *, *, #67, .F. ) ;
#313 = ORIENTED_EDGE ( 'NONE', *, *, #107, .F. ) ;
#314 = ORIENTED_EDGE ( 'NONE', *, *, #461, .F. ) ;
#315 = CARTESIAN_POINT ( 'NONE',  ( 73.83679688464884805, 20.00000000000003197, -2.999999999999790390 ) ) ;
#316 = CARTESIAN_POINT ( 'NONE',  ( 101.2557547161529641, 20.85476016491504225, -3.024375240774148654 ) ) ;
#317 = ORIENTED_EDGE ( 'NONE', *, *, #585, .F. ) ;
#318 = ORIENTED_EDGE ( 'NONE', *, *, #752, .T. ) ;
#319 = FACE_OUTER_BOUND ( 'NONE', #500, .T. ) ;
#320 = LINE ( 'NONE', #736, #228 ) ;
#321 = ORIENTED_EDGE ( 'NONE', *, *, #454, .T. ) ;
#322 = VERTEX_POINT ( 'NONE', #619 ) ;
#323 = CARTESIAN_POINT ( 'NONE',  ( 104.0425087087336351, 20.00000000000160227, -152.9999999999997726 ) ) ;
#324 = AXIS2_PLACEMENT_3D ( 'NONE', #601, #192, #373 ) ;
#325 = CIRCLE ( 'NONE', #264, 5.000000000000004441 ) ;
#326 = VECTOR ( 'NONE', #702, 1000.000000000000000 ) ;
#327 = CARTESIAN_POINT ( 'NONE',  ( 3.000000000000000444, 20.00000000000014566, -13.96713975998183521 ) ) ;
#328 = PERSON_AND_ORGANIZATION_ROLE ( 'creator' ) ;
#329 = DIRECTION ( 'NONE',  ( -1.000000000000000000, 0.000000000000000000, 2.662275650320324699E-17 ) ) ;
#330 = EDGE_CURVE ( 'NONE', #387, #725, #320, .T. ) ;
#331 = LOCAL_TIME ( 11, 4, 22.00000000000000000, #234 ) ;
#332 = DATE_AND_TIME ( #104, #404 ) ;
#333 = AXIS2_PLACEMENT_3D ( 'NONE', #120, #214, #553 ) ;
#334 = CARTESIAN_POINT ( 'NONE',  ( 103.0315728336971830, 12.26827956981898282, -3.003349308410089957 ) ) ;
#335 = ORIENTED_EDGE ( 'NONE', *, *, #657, .F. ) ;
#336 = LINE ( 'NONE', #219, #720 ) ;
#337 = VERTEX_POINT ( 'NONE', #217 ) ;
#338 = DIRECTION ( 'NONE',  ( -1.000000000000000000, 4.930380657631323784E-29, -4.336808689942017736E-15 ) ) ;
#339 = EDGE_CURVE ( 'NONE', #667, #609, #622, .T. ) ;
#340 = CC_DESIGN_PERSON_AND_ORGANIZATION_ASSIGNMENT ( #238, #126, ( #498 ) ) ;
#341 = DIRECTION ( 'NONE',  ( 2.662275650320332403E-17, -1.047444401652940007E-14, 1.000000000000000000 ) ) ;
#342 = CARTESIAN_POINT ( 'NONE',  ( 5.000000000000004441, 3.142333204958814340E-14, -2.999999999999994227 ) ) ;
#343 = EDGE_CURVE ( 'NONE', #713, #75, #135, .T. ) ;
#344 = DIRECTION ( 'NONE',  ( 0.000000000000000000, 1.000000000000000000, 1.047444401652940007E-14 ) ) ;
#345 = CARTESIAN_POINT ( 'NONE',  ( 52.47309284696377318, 3.142333204958818126E-14, -2.999999999999998224 ) ) ;
#346 = AXIS2_PLACEMENT_3D ( 'NONE', #121, #347, #53 ) ;
#347 = DIRECTION ( 'NONE',  ( 2.869050676247665120E-17, 1.047444401652940007E-14, -1.000000000000000000 ) ) ;
#348 = FACE_OUTER_BOUND ( 'NONE', #677, .T. ) ;
#349 = DIRECTION ( 'NONE',  ( -2.662275650320332403E-17, 1.047444401652940007E-14, -1.000000000000000000 ) ) ;
#350 = CARTESIAN_POINT ( 'NONE',  ( 104.0425087087336209, 6.388109363391941464, -2.999999999999943601 ) ) ;
#351 = MANIFOLD_SOLID_BREP ( 'Body-Move/Copy1', #110 ) ;
#352 = ADVANCED_FACE ( 'NONE', ( #669 ), #389, .F. ) ;
#353 = DIRECTION ( 'NONE',  ( 2.276539994720219657E-17, 1.047444401652940007E-14, -1.000000000000000000 ) ) ;
#354 = AXIS2_PLACEMENT_3D ( 'NONE', #123, #179, #296 ) ;
#355 = VERTEX_POINT ( 'NONE', #392 ) ;
#356 = EDGE_CURVE ( 'NONE', #378, #603, #43, .T. ) ;
#357 = DIRECTION ( 'NONE',  ( -0.000000000000000000, 1.000000000000000000, 1.047444401652940007E-14 ) ) ;
#358 = CYLINDRICAL_SURFACE ( 'NONE', #596, 2.000000000000000000 ) ;
#359 = EDGE_LOOP ( 'NONE', ( #193, #606, #648, #408, #164, #549 ) ) ;
#360 = CARTESIAN_POINT ( 'NONE',  ( 103.0333937410534020, 7.727859643208679685, -3.003336271339227537 ) ) ;
#361 = EDGE_CURVE ( 'NONE', #713, #170, #97, .T. ) ;
#362 = FACE_OUTER_BOUND ( 'NONE', #304, .T. ) ;
#363 = ORIENTED_EDGE ( 'NONE', *, *, #227, .T. ) ;
#364 = EDGE_LOOP ( 'NONE', ( #602, #13, #446, #249, #142 ) ) ;
#365 = VECTOR ( 'NONE', #303, 1000.000000000000000 ) ;
#366 = CARTESIAN_POINT ( 'NONE',  ( 0.000000000000000000, 20.00000000000000000, 2.094888803305880013E-13 ) ) ;
#367 = CARTESIAN_POINT ( 'NONE',  ( 112.5000000000000000, 9.999999999999849010, 14.34213562373106399 ) ) ;
#368 = EDGE_CURVE ( 'NONE', #102, #466, #676, .T. ) ;
#369 = AXIS2_PLACEMENT_3D ( 'NONE', #300, #644, #705 ) ;
#370 = ORIENTED_EDGE ( 'NONE', *, *, #250, .T. ) ;
#371 = VERTEX_POINT ( 'NONE', #560 ) ;
#372 = CARTESIAN_POINT ( 'NONE',  ( 3.000000000000000000, 20.00000000000017053, -16.38028385598901693 ) ) ;
#373 = DIRECTION ( 'NONE',  ( 0.9826241016603983747, -1.944127771292040869E-15, 0.1856067747580751881 ) ) ;
#374 = ORIENTED_EDGE ( 'NONE', *, *, #113, .F. ) ;
#375 = EDGE_CURVE ( 'NONE', #371, #93, #646, .T. ) ;
#376 = DIRECTION ( 'NONE',  ( 0.000000000000000000, 1.000000000000000000, 1.047444401652940007E-14 ) ) ;
#377 = DIRECTION ( 'NONE',  ( -1.000000000000000000, -2.788585725584972414E-31, 2.662275650320332403E-17 ) ) ;
#378 = VERTEX_POINT ( 'NONE', #163 ) ;
#379 = ORIENTED_EDGE ( 'NONE', *, *, #484, .T. ) ;
#380 = CARTESIAN_POINT ( 'NONE',  ( 104.0425087087336209, 13.61189063660812160, -2.999999999999867661 ) ) ;
#381 = CARTESIAN_POINT ( 'NONE',  ( 107.5000000000000000, 10.00000000000003197, -2.999999999999905409 ) ) ;
#382 = ORIENTED_EDGE ( 'NONE', *, *, #291, .F. ) ;
#383 = CYLINDRICAL_SURFACE ( 'NONE', #419, 5.000000000000004441 ) ;
#384 = EDGE_CURVE ( 'NONE', #691, #17, #336, .T. ) ;
#385 = CARTESIAN_POINT ( 'NONE',  ( 99.99999999999998579, -3.703275196623398055E-13, 35.35533905932737753 ) ) ;
#386 = ORIENTED_EDGE ( 'NONE', *, *, #524, .F. ) ;
#387 = VERTEX_POINT ( 'NONE', #271 ) ;
#388 = COORDINATED_UNIVERSAL_TIME_OFFSET ( 8, 0, .BEHIND. ) ;
#389 = PLANE ( 'NONE',  #265 ) ;
#390 = ORIENTED_EDGE ( 'NONE', *, *, #223, .F. ) ;
#391 = AXIS2_PLACEMENT_3D ( 'NONE', #136, #707, #70 ) ;
#392 = CARTESIAN_POINT ( 'NONE',  ( 102.5000000000000000, 9.999999999999998224, 0.1000000000001025485 ) ) ;
#393 = ADVANCED_FACE ( 'NONE', ( #440, #443 ), #485, .T. ) ;
#394 = EDGE_LOOP ( 'NONE', ( #473, #486, #554, #546, #269 ) ) ;
#395 = AXIS2_PLACEMENT_3D ( 'NONE', #175, #406, #637 ) ;
#396 = AXIS2_PLACEMENT_3D ( 'NONE', #276, #499, #680 ) ;
#397 = CARTESIAN_POINT ( 'NONE',  ( 104.0425087087336209, 6.388109363391941464, -2.999999999999943601 ) ) ;
#398 = PLANE ( 'NONE',  #645 ) ;
#399 = VECTOR ( 'NONE', #162, 1000.000000000000000 ) ;
#400 = ADVANCED_BREP_SHAPE_REPRESENTATION ( 'DroneArmB', ( #351, #301 ), #177 ) ;
#401 = DIRECTION ( 'NONE',  ( 2.869050676247665120E-17, 1.047444401652940007E-14, -1.000000000000000000 ) ) ;
#402 = DIRECTION ( 'NONE',  ( 2.662275650320332403E-17, -1.047444401652940007E-14, 1.000000000000000000 ) ) ;
#403 = DIRECTION ( 'NONE',  ( -1.000000000000000000, 0.000000000000000000, 2.662275650320324699E-17 ) ) ;
#404 = LOCAL_TIME ( 11, 4, 22.00000000000000000, #388 ) ;
#405 = CARTESIAN_POINT ( 'NONE',  ( 76.20149249502235023, 5.872376320884754101E-14, -5.606384750940228479 ) ) ;
#406 = DIRECTION ( 'NONE',  ( 1.000000000000000000, 0.000000000000000000, 0.000000000000000000 ) ) ;
#407 = CARTESIAN_POINT ( 'NONE',  ( 0.000000000000000000, 20.00000000000000000, 2.094888803305880013E-13 ) ) ;
#408 = ORIENTED_EDGE ( 'NONE', *, *, #726, .T. ) ;
#409 = PERSON_AND_ORGANIZATION_ROLE ( 'creator' ) ;
#410 = FACE_OUTER_BOUND ( 'NONE', #394, .T. ) ;
#411 = EDGE_CURVE ( 'NONE', #161, #713, #88, .T. ) ;
#412 = EDGE_CURVE ( 'NONE', #355, #371, #611, .T. ) ;
#413 = CARTESIAN_POINT ( 'NONE',  ( 107.5000000000000000, 9.999999999999998224, 0.1000000000001024097 ) ) ;
#414 = CARTESIAN_POINT ( 'NONE',  ( 102.5000000000000000, 10.00000000000003020, -3.007931320074421766 ) ) ;
#415 = ORIENTED_EDGE ( 'NONE', *, *, #715, .F. ) ;
#416 = AXIS2_PLACEMENT_3D ( 'NONE', #504, #401, #284 ) ;
#417 = AXIS2_PLACEMENT_3D ( 'NONE', #730, #50, #329 ) ;
#418 = CARTESIAN_POINT ( 'NONE',  ( 107.5000000000000000, 10.00000000000000000, 1.047444401652940007E-13 ) ) ;
#420 = EDGE_CURVE ( 'NONE', #137, #322, #10, .T. ) ;
#419 = AXIS2_PLACEMENT_3D ( 'NONE', #26, #20, #305 ) ;
#421 = FACE_OUTER_BOUND ( 'NONE', #717, .T. ) ;
#422 = VERTEX_POINT ( 'NONE', #741 ) ;
#423 = LINE ( 'NONE', #208, #432 ) ;
#424 = DIRECTION ( 'NONE',  ( -1.000000000000000000, 0.000000000000000000, 0.000000000000000000 ) ) ;
#425 = ORIENTED_EDGE ( 'NONE', *, *, #608, .T. ) ;
#426 = ORIENTED_EDGE ( 'NONE', *, *, #484, .F. ) ;
#427 = VECTOR ( 'NONE', #73, 1000.000000000000000 ) ;
#428 = DIRECTION ( 'NONE',  ( 1.000000000000000000, 2.036981890165026105E-30, -1.944716003016988085E-16 ) ) ;
#429 = DIRECTION ( 'NONE',  ( 2.276539994720219657E-17, 1.047444401652940007E-14, -1.000000000000000000 ) ) ;
#430 = VERTEX_POINT ( 'NONE', #286 ) ;
#431 = DIRECTION ( 'NONE',  ( -1.944716003016988085E-16, 1.047444401652940007E-14, -1.000000000000000000 ) ) ;
#432 = VECTOR ( 'NONE', #668, 1000.000000000000000 ) ;
#433 = CARTESIAN_POINT ( 'NONE',  ( 103.1958600590249375, 12.56671029059230627, -3.002266863287181842 ) ) ;
#434 = ORIENTED_EDGE ( 'NONE', *, *, #57, .F. ) ;
#435 = EDGE_CURVE ( 'NONE', #12, #161, #19, .T. ) ;
#436 = ORIENTED_EDGE ( 'NONE', *, *, #412, .F. ) ;
#437 = CARTESIAN_POINT ( 'NONE',  ( 52.84430639647993644, 7.295710236691564394E-14, -6.965248203320792975 ) ) ;
#438 = LINE ( 'NONE', #48, #204 ) ;
#439 = CARTESIAN_POINT ( 'NONE',  ( 99.99999999999998579, 3.199400926393577096E-14, -3.054482816791707744 ) ) ;
#440 = FACE_OUTER_BOUND ( 'NONE', #364, .T. ) ;
#441 = EDGE_LOOP ( 'NONE', ( #212, #260, #556, #623, #261 ) ) ;
#442 = ORIENTED_EDGE ( 'NONE', *, *, #45, .F. ) ;
#443 = FACE_BOUND ( 'NONE', #749, .T. ) ;
#444 = DIRECTION ( 'NONE',  ( -1.000000000000000000, 0.000000000000000000, 0.000000000000000000 ) ) ;
#445 = LINE ( 'NONE', #385, #659 ) ;
#446 = ORIENTED_EDGE ( 'NONE', *, *, #40, .F. ) ;
#447 = PERSON_AND_ORGANIZATION ( #497, #105 ) ;
#448 = CARTESIAN_POINT ( 'NONE',  ( 99.99999999999998579, 20.00000000000000000, 2.096885510043620375E-13 ) ) ;
#449 = ORIENTED_EDGE ( 'NONE', *, *, #218, .F. ) ;
#450 = CIRCLE ( 'NONE', #133, 5.000000000000004441 ) ;
#451 = CIRCLE ( 'NONE', #463, 2.000000000000001776 ) ;
#452 = CARTESIAN_POINT ( 'NONE',  ( 102.5000000000000000, 9.999999999999849010, 14.34213562373106399 ) ) ;
#453 = LINE ( 'NONE', #516, #263 ) ;
#454 = EDGE_CURVE ( 'NONE', #603, #224, #178, .T. ) ;
#455 = CARTESIAN_POINT ( 'NONE',  ( 0.000000000000000000, 0.000000000000000000, 0.000000000000000000 ) ) ;
#456 = CARTESIAN_POINT ( 'NONE',  ( 103.1986171226084679, 7.428960869988825877, -3.002252724508923887 ) ) ;
#457 = ORIENTED_EDGE ( 'NONE', *, *, #657, .T. ) ;
#458 = PRODUCT_DEFINITION_FORMATION_WITH_SPECIFIED_SOURCE ( 'ANY', '', #21, .NOT_KNOWN. ) ;
#459 = APPROVAL_STATUS ( 'not_yet_approved' ) ;
#460 = ADVANCED_FACE ( 'NONE', ( #225 ), #580, .F. ) ;
#461 = EDGE_CURVE ( 'NONE', #592, #712, #68, .T. ) ;
#462 = DIRECTION ( 'NONE',  ( -1.000000000000000000, 0.000000000000000000, 0.000000000000000000 ) ) ;
#463 = AXIS2_PLACEMENT_3D ( 'NONE', #182, #589, #72 ) ;
#464 = CARTESIAN_POINT ( 'NONE',  ( 115.0000000000000000, 20.00000000000000000, 2.064272633327195974E-13 ) ) ;
#465 = DATE_AND_TIME ( #129, #331 ) ;
#466 = VERTEX_POINT ( 'NONE', #191 ) ;
#467 = DIRECTION ( 'NONE',  ( -0.000000000000000000, 1.000000000000000000, 1.047444401652940007E-14 ) ) ;
#468 = CARTESIAN_POINT ( 'NONE',  ( 107.5000000000000000, 9.999999999999849010, 14.34213562373106399 ) ) ;
#469 = DATE_TIME_ROLE ( 'classification_date' ) ;
#470 = DIRECTION ( 'NONE',  ( 2.276539994720219657E-17, 1.047444401652940007E-14, -1.000000000000000000 ) ) ;
#471 = DIRECTION ( 'NONE',  ( -1.000000000000000000, 0.000000000000000000, 0.000000000000000000 ) ) ;
#472 = ORIENTED_EDGE ( 'NONE', *, *, #113, .T. ) ;
#473 = ORIENTED_EDGE ( 'NONE', *, *, #308, .T. ) ;
#474 = DIRECTION ( 'NONE',  ( 2.662275650320332403E-17, -1.047444401652940007E-14, 1.000000000000000000 ) ) ;
#475 = CARTESIAN_POINT ( 'NONE',  ( 104.0425087087336209, 22.01231676117550506, -2.999999999999779732 ) ) ;
#476 = ORIENTED_EDGE ( 'NONE', *, *, #302, .T. ) ;
#477 = FACE_BOUND ( 'NONE', #233, .T. ) ;
#478 = CARTESIAN_POINT ( 'NONE',  ( 99.99999999999998579, 3.199400926393577096E-14, -3.054482816791707744 ) ) ;
#479 = ORIENTED_EDGE ( 'NONE', *, *, #435, .F. ) ;
#480 = ORIENTED_EDGE ( 'NONE', *, *, #61, .F. ) ;
#481 = AXIS2_PLACEMENT_3D ( 'NONE', #682, #273, #92 ) ;
#482 = ORIENTED_EDGE ( 'NONE', *, *, #435, .T. ) ;
#483 = PLANE ( 'NONE',  #538 ) ;
#484 = EDGE_CURVE ( 'NONE', #17, #592, #451, .T. ) ;
#485 = PLANE ( 'NONE',  #396 ) ;
#486 = ORIENTED_EDGE ( 'NONE', *, *, #57, .T. ) ;
#487 = CIRCLE ( 'NONE', #174, 150.0000000000000000 ) ;
#488 = CIRCLE ( 'NONE', #226, 2.000000000000000000 ) ;
#489 = VECTOR ( 'NONE', #627, 1000.000000000000000 ) ;
#490 = DIRECTION ( 'NONE',  ( -1.000000000000000000, 0.000000000000000000, 0.000000000000000000 ) ) ;
#491 = AXIS2_PLACEMENT_3D ( 'NONE', #551, #30, #37 ) ;
#492 = CARTESIAN_POINT ( 'NONE',  ( 0.000000000000000000, 20.00000000000000000, 2.094888803305880013E-13 ) ) ;
#493 = EDGE_CURVE ( 'NONE', #224, #518, #600, .T. ) ;
#494 = ORIENTED_EDGE ( 'NONE', *, *, #420, .T. ) ;
#495 = ORIENTED_EDGE ( 'NONE', *, *, #561, .T. ) ;
#496 = CARTESIAN_POINT ( 'NONE',  ( 115.0000000000000000, 20.00000000000000000, 2.064272633327195974E-13 ) ) ;
#497 = PERSON ( 'UNSPECIFIED', 'UNSPECIFIED', 'UNSPECIFIED', ('UNSPECIFIED'), ('UNSPECIFIED'), ('UNSPECIFIED') ) ;
#498 = SECURITY_CLASSIFICATION ( '', '', #240 ) ;
#499 = DIRECTION ( 'NONE',  ( -0.000000000000000000, -1.000000000000000000, -1.047444401652940007E-14 ) ) ;
#500 = EDGE_LOOP ( 'NONE', ( #83, #494, #425, #51 ) ) ;
#501 = CARTESIAN_POINT ( 'NONE',  ( 52.84430639647992933, 20.00000000000007461, -6.965248203320585141 ) ) ;
#502 = AXIS2_PLACEMENT_3D ( 'NONE', #590, #130, #711 ) ;
#503 = CARTESIAN_POINT ( 'NONE',  ( 102.5000000000000000, 10.00000000000003020, -3.007931320074421766 ) ) ;
#504 = CARTESIAN_POINT ( 'NONE',  ( 107.5000000000000000, 10.00000000000003375, -3.099999999999905498 ) ) ;
#505 = CARTESIAN_POINT ( 'NONE',  ( 103.7974516637555240, 13.37730917107654882, -2.999999999999865441 ) ) ;
#506 = ORIENTED_EDGE ( 'NONE', *, *, #461, .T. ) ;
#507 = CARTESIAN_POINT ( 'NONE',  ( 5.000000000000000888, 1.462980234869738346E-13, -13.96713975998204660 ) ) ;
#508 = DIRECTION ( 'NONE',  ( 1.000000000000000000, 0.000000000000000000, 0.000000000000000000 ) ) ;
#509 = ORIENTED_EDGE ( 'NONE', *, *, #597, .T. ) ;
#510 =( LENGTH_UNIT ( ) NAMED_UNIT ( * ) SI_UNIT ( .MILLI., .METRE. ) );
#511 = CARTESIAN_POINT ( 'NONE',  ( 5.000000000000002665, 20.00000000000003197, -2.999999999999785061 ) ) ;
#512 = CARTESIAN_POINT ( 'NONE',  ( 112.5000000000000000, 9.999999999999998224, 1.011418794308243371E-13 ) ) ;
#513 = CARTESIAN_POINT ( 'NONE',  ( 107.5000000000000000, 9.999999999999630518, 35.35533905932747700 ) ) ;
#514 = CARTESIAN_POINT ( 'NONE',  ( 99.99999999999998579, 20.00000000000003197, -3.054482816791498578 ) ) ;
#515 = CC_DESIGN_DATE_AND_TIME_ASSIGNMENT ( #41, #272, ( #95 ) ) ;
#516 = CARTESIAN_POINT ( 'NONE',  ( 112.5000000000000000, 9.999999999999849010, 14.34213562373106399 ) ) ;
#517 = EDGE_CURVE ( 'NONE', #592, #708, #56, .T. ) ;
#518 = VERTEX_POINT ( 'NONE', #448 ) ;
#519 = CALENDAR_DATE ( 2026, 6, 8 ) ;
#520 = APPLICATION_CONTEXT ( 'configuration controlled 3d designs of mechanical parts and assemblies' ) ;
#521 = CIRCLE ( 'NONE', #333, 5.000000000000004441 ) ;
#522 = DIRECTION ( 'NONE',  ( 2.276539994720219657E-17, 1.047444401652940007E-14, -1.000000000000000000 ) ) ;
#523 = PERSON_AND_ORGANIZATION_ROLE ( 'design_supplier' ) ;
#524 = EDGE_CURVE ( 'NONE', #102, #387, #245, .T. ) ;
#525 = AXIS2_PLACEMENT_3D ( 'NONE', #464, #349, #287 ) ;
#526 = DIRECTION ( 'NONE',  ( -2.662275650320332403E-17, 1.047444401652940007E-14, -1.000000000000000000 ) ) ;
#527 = AXIS2_PLACEMENT_3D ( 'NONE', #153, #376, #252 ) ;
#528 = DIRECTION ( 'NONE',  ( -1.000000000000000000, 0.000000000000000000, 2.710505431213758620E-17 ) ) ;
#529 = EDGE_CURVE ( 'NONE', #337, #355, #640, .T. ) ;
#530 = CYLINDRICAL_SURFACE ( 'NONE', #502, 2.000000000000001776 ) ;
#531 = CC_DESIGN_SECURITY_CLASSIFICATION ( #498, ( #458 ) ) ;
#532 = DIRECTION ( 'NONE',  ( 0.000000000000000000, 1.000000000000000000, 1.047444401652940007E-14 ) ) ;
#533 = CYLINDRICAL_SURFACE ( 'NONE', #44, 5.000000000000004441 ) ;
#534 = ADVANCED_FACE ( 'NONE', ( #232 ), #281, .F. ) ;
#535 = ORIENTED_EDGE ( 'NONE', *, *, #223, .T. ) ;
#536 = EDGE_LOOP ( 'NONE', ( #23, #143, #268, #317 ) ) ;
#537 = FACE_OUTER_BOUND ( 'NONE', #78, .T. ) ;
#538 = AXIS2_PLACEMENT_3D ( 'NONE', #366, #76, #547 ) ;
#539 = CARTESIAN_POINT ( 'NONE',  ( 99.99999999999998579, -2.091439294188730252E-30, 1.996706737740250303E-16 ) ) ;
#540 = EDGE_LOOP ( 'NONE', ( #662, #628 ) ) ;
#541 = EDGE_LOOP ( 'NONE', ( #34, #89, #666, #436 ) ) ;
#542 = CC_DESIGN_PERSON_AND_ORGANIZATION_ASSIGNMENT ( #100, #328, ( #95 ) ) ;
#543 = CARTESIAN_POINT ( 'NONE',  ( 3.000000000000000000, 1.715743662244194710E-13, -16.38028385598922654 ) ) ;
#544 = FACE_OUTER_BOUND ( 'NONE', #211, .T. ) ;
#545 = ORIENTED_EDGE ( 'NONE', *, *, #733, .F. ) ;
#546 = ORIENTED_EDGE ( 'NONE', *, *, #343, .F. ) ;
#547 = DIRECTION ( 'NONE',  ( -1.000000000000000000, 0.000000000000000000, 0.000000000000000000 ) ) ;
#548 = FACE_OUTER_BOUND ( 'NONE', #183, .T. ) ;
#549 = ORIENTED_EDGE ( 'NONE', *, *, #157, .T. ) ;
#550 = EDGE_LOOP ( 'NONE', ( #479, #434, #612, #480, #386, #24, #660, #79, #654 ) ) ;
#551 = CARTESIAN_POINT ( 'NONE',  ( 73.83679688464884805, 20.00000000000003197, -2.999999999999790390 ) ) ;
#552 = CC_DESIGN_PERSON_AND_ORGANIZATION_ASSIGNMENT ( #696, #409, ( #458 ) ) ;
#553 = DIRECTION ( 'NONE',  ( -1.000000000000000000, 0.000000000000000000, 0.000000000000000000 ) ) ;
#554 = ORIENTED_EDGE ( 'NONE', *, *, #250, .F. ) ;
#555 = VECTOR ( 'NONE', #579, 1000.000000000000000 ) ;
#556 = ORIENTED_EDGE ( 'NONE', *, *, #748, .F. ) ;
#557 = VECTOR ( 'NONE', #467, 1000.000000000000000 ) ;
#558 = PLANE ( 'NONE',  #491 ) ;
#559 = VECTOR ( 'NONE', #599, 1000.000000000000000 ) ;
#560 = CARTESIAN_POINT ( 'NONE',  ( 102.5000000000000000, 10.00000000000000000, 1.014081069958563980E-13 ) ) ;
#561 = EDGE_CURVE ( 'NONE', #322, #257, #275, .T. ) ;
#562 = VERTEX_POINT ( 'NONE', #514 ) ;
#563 = COORDINATED_UNIVERSAL_TIME_OFFSET ( 8, 0, .BEHIND. ) ;
#564 = LOCAL_TIME ( 11, 4, 22.00000000000000000, #563 ) ;
#565 = CARTESIAN_POINT ( 'NONE',  ( 102.4999999999999716, 10.33463996622210779, -3.007931320074435977 ) ) ;
#566 = DIRECTION ( 'NONE',  ( -0.000000000000000000, 1.000000000000000000, 1.047444401652940007E-14 ) ) ;
#567 = AXIS2_PLACEMENT_3D ( 'NONE', #201, #253, #424 ) ;
#568 = DIRECTION ( 'NONE',  ( 2.276539994720219657E-17, 1.047444401652940007E-14, -1.000000000000000000 ) ) ;
#569 = ORIENTED_EDGE ( 'NONE', *, *, #180, .F. ) ;
#570 = AXIS2_PLACEMENT_3D ( 'NONE', #413, #341, #528 ) ;
#571 = COORDINATED_UNIVERSAL_TIME_OFFSET ( 8, 0, .BEHIND. ) ;
#572 = ADVANCED_FACE ( 'NONE', ( #196 ), #638, .T. ) ;
#573 = DIRECTION ( 'NONE',  ( -1.000000000000000000, 0.000000000000000000, 0.000000000000000000 ) ) ;
#574 = PERSON_AND_ORGANIZATION ( #497, #105 ) ;
#575 = FACE_OUTER_BOUND ( 'NONE', #237, .T. ) ;
#576 = CARTESIAN_POINT ( 'NONE',  ( 0.000000000000000000, 0.000000000000000000, 0.000000000000000000 ) ) ;
#577 = CARTESIAN_POINT ( 'NONE',  ( 103.3070573619692283, -1.800632647515821416, -3.000000000000032419 ) ) ;
#578 = DIRECTION ( 'NONE',  ( -1.000000000000000000, 0.000000000000000000, 0.000000000000000000 ) ) ;
#579 = DIRECTION ( 'NONE',  ( -0.000000000000000000, -1.047444401652940007E-14, 1.000000000000000000 ) ) ;
#580 = CYLINDRICAL_SURFACE ( 'NONE', #33, 150.0000000000000000 ) ;
#581 = FACE_OUTER_BOUND ( 'NONE', #536, .T. ) ;
#582 = DIRECTION ( 'NONE',  ( 0.9826241016603983747, -1.944127771292041657E-15, 0.1856067747580752436 ) ) ;
#583 = SHAPE_DEFINITION_REPRESENTATION ( #246, #400 ) ;
#584 = CARTESIAN_POINT ( 'NONE',  ( 112.5000000000000000, 10.00000000000003197, -2.999999999999905409 ) ) ;
#585 = EDGE_CURVE ( 'NONE', #466, #725, #684, .T. ) ;
#586 = VECTOR ( 'NONE', #742, 1000.000000000000000 ) ;
#587 = VECTOR ( 'NONE', #32, 1000.000000000000000 ) ;
#588 = LINE ( 'NONE', #367, #427 ) ;
#589 = DIRECTION ( 'NONE',  ( -0.000000000000000000, 1.000000000000000000, 1.047444401652940007E-14 ) ) ;
#590 = CARTESIAN_POINT ( 'NONE',  ( 52.47309284696377318, 20.00000000000005329, -4.999999999999788614 ) ) ;
#591 = EDGE_LOOP ( 'NONE', ( #111, #1 ) ) ;
#592 = VERTEX_POINT ( 'NONE', #173 ) ;
#593 = CARTESIAN_POINT ( 'NONE',  ( 115.0000000000000000, 3.206873584422718342E-29, -3.061616997868382254E-15 ) ) ;
#594 = ADVANCED_FACE ( 'NONE', ( #575, #477 ), #483, .F. ) ;
#595 = DIRECTION ( 'NONE',  ( -8.673617379884033007E-17, -1.047444401652940007E-14, 1.000000000000000000 ) ) ;
#596 = AXIS2_PLACEMENT_3D ( 'NONE', #701, #141, #22 ) ;
#597 = EDGE_CURVE ( 'NONE', #148, #422, #200, .T. ) ;
#598 = ORIENTED_EDGE ( 'NONE', *, *, #585, .T. ) ;
#599 = DIRECTION ( 'NONE',  ( 1.944716003016988085E-16, -1.047444401652940007E-14, 1.000000000000000000 ) ) ;
#600 = CIRCLE ( 'NONE', #699, 12.49999999999999645 ) ;
#601 = CARTESIAN_POINT ( 'NONE',  ( 0.000000000000000000, 20.00000000000020961, -19.99999999999979394 ) ) ;
#602 = ORIENTED_EDGE ( 'NONE', *, *, #280, .F. ) ;
#603 = VERTEX_POINT ( 'NONE', #723 ) ;
#604 = LINE ( 'NONE', #213, #559 ) ;
#605 = CYLINDRICAL_SURFACE ( 'NONE', #626, 5.000000000000004441 ) ;
#606 = ORIENTED_EDGE ( 'NONE', *, *, #493, .F. ) ;
#607 = ORIENTED_EDGE ( 'NONE', *, *, #614, .F. ) ;
#608 = EDGE_CURVE ( 'NONE', #322, #691, #310, .T. ) ;
#609 = VERTEX_POINT ( 'NONE', #94 ) ;
#610 = DIRECTION ( 'NONE',  ( -0.9826241016603983747, 1.944127771292041657E-15, -0.1856067747580752436 ) ) ;
#611 = LINE ( 'NONE', #452, #98 ) ;
#612 = ORIENTED_EDGE ( 'NONE', *, *, #726, .F. ) ;
#613 = CARTESIAN_POINT ( 'NONE',  ( 107.5000000000000000, 9.999999999999998224, 0.1000000000001024097 ) ) ;
#614 = EDGE_CURVE ( 'NONE', #422, #727, #270, .T. ) ;
#615 = DIRECTION ( 'NONE',  ( 2.869050676247665120E-17, 1.047444401652940007E-14, -1.000000000000000000 ) ) ;
#616 = VECTOR ( 'NONE', #724, 1000.000000000000000 ) ;
#617 = APPROVAL_DATE_TIME ( #172, #8 ) ;
#618 = EDGE_CURVE ( 'NONE', #712, #727, #150, .T. ) ;
#619 = CARTESIAN_POINT ( 'NONE',  ( 5.000000000000004441, 20.00000000000003197, -2.999999999999785061 ) ) ;
#620 = ORIENTED_EDGE ( 'NONE', *, *, #733, .T. ) ;
#621 = CALENDAR_DATE ( 2026, 6, 8 ) ;
#622 = LINE ( 'NONE', #327, #587 ) ;
#623 = ORIENTED_EDGE ( 'NONE', *, *, #302, .F. ) ;
#624 = APPROVAL ( #678, 'UNSPECIFIED' ) ;
#625 = PERSON_AND_ORGANIZATION_ROLE ( 'design_owner' ) ;
#626 = AXIS2_PLACEMENT_3D ( 'NONE', #146, #353, #256 ) ;
#627 = DIRECTION ( 'NONE',  ( -0.000000000000000000, -1.000000000000000000, -1.047444401652940007E-14 ) ) ;
#628 = ORIENTED_EDGE ( 'NONE', *, *, #529, .T. ) ;
#629 = ADVANCED_FACE ( 'NONE', ( #158 ), #383, .T. ) ;
#630 = CIRCLE ( 'NONE', #2, 2.000000000000001776 ) ;
#631 = CARTESIAN_POINT ( 'NONE',  ( 102.7692594015745442, 8.346734545262119553, -3.005345832097218839 ) ) ;
#632 = DIRECTION ( 'NONE',  ( 0.000000000000000000, -1.000000000000000000, -1.047444401652940007E-14 ) ) ;
#633 = APPLICATION_PROTOCOL_DEFINITION ( 'international standard', 'config_control_design', 1994, #520 ) ;
#634 = ADVANCED_FACE ( 'NONE', ( #537 ), #258, .T. ) ;
#635 = CC_DESIGN_PERSON_AND_ORGANIZATION_ASSIGNMENT ( #295, #523, ( #458 ) ) ;
#636 = DIRECTION ( 'NONE',  ( 0.000000000000000000, 1.000000000000000000, 1.047444401652940007E-14 ) ) ;
#637 = DIRECTION ( 'NONE',  ( 0.000000000000000000, -1.000000000000000000, -1.047444401652940007E-14 ) ) ;
#638 = PLANE ( 'NONE',  #346 ) ;
#639 = CARTESIAN_POINT ( 'NONE',  ( 3.000000000000002220, 5.237222008264693091E-14, -4.999999999999992895 ) ) ;
#640 = CIRCLE ( 'NONE', #570, 5.000000000000004441 ) ;
#641 = CARTESIAN_POINT ( 'NONE',  ( 107.5000000000000000, 10.00000000000000000, 1.012749932133403865E-13 ) ) ;
#642 = PLANE ( 'NONE',  #525 ) ;
#643 = PLANE ( 'NONE',  #743 ) ;
#644 = DIRECTION ( 'NONE',  ( 0.000000000000000000, -1.000000000000000000, -1.047444401652940007E-14 ) ) ;
#645 = AXIS2_PLACEMENT_3D ( 'NONE', #125, #115, #582 ) ;
#646 = CIRCLE ( 'NONE', #417, 5.000000000000004441 ) ;
#647 = DIRECTION ( 'NONE',  ( 1.000000000000000000, -9.085131966639171708E-31, 8.673617379884033007E-17 ) ) ;
#648 = ORIENTED_EDGE ( 'NONE', *, *, #280, .T. ) ;
#649 = ORIENTED_EDGE ( 'NONE', *, *, #339, .T. ) ;
#650 = EDGE_CURVE ( 'NONE', #667, #103, #604, .T. ) ;
#651 = CARTESIAN_POINT ( 'NONE',  ( 0.000000000000000000, 20.00000000000020961, -19.99999999999979394 ) ) ;
#652 = DIRECTION ( 'NONE',  ( -1.000000000000000000, 0.000000000000000000, 0.000000000000000000 ) ) ;
#653 = ORIENTED_EDGE ( 'NONE', *, *, #752, .F. ) ;
#654 = ORIENTED_EDGE ( 'NONE', *, *, #411, .F. ) ;
#655 = APPROVAL_PERSON_ORGANIZATION ( #185, #96, #750 ) ;
#656 = CYLINDRICAL_SURFACE ( 'NONE', #527, 2.000000000000000000 ) ;
#657 = EDGE_CURVE ( 'NONE', #609, #257, #423, .T. ) ;
#658 = CARTESIAN_POINT ( 'NONE',  ( 100.6120857711550514, 20.45906432836631339, -3.037981075980107804 ) ) ;
#659 = VECTOR ( 'NONE', #568, 1000.000000000000000 ) ;
#660 = ORIENTED_EDGE ( 'NONE', *, *, #157, .F. ) ;
#661 = ORIENTED_EDGE ( 'NONE', *, *, #710, .T. ) ;
#662 = ORIENTED_EDGE ( 'NONE', *, *, #715, .T. ) ;
#663 = DIRECTION ( 'NONE',  ( 0.000000000000000000, -1.000000000000000000, -1.047444401652940007E-14 ) ) ;
#664 = CARTESIAN_POINT ( 'NONE',  ( 102.6032407327759728, 21.52554406878599380, -3.005391672138204129 ) ) ;
#665 = ADVANCED_FACE ( 'NONE', ( #255 ), #656, .F. ) ;
#666 = ORIENTED_EDGE ( 'NONE', *, *, #375, .F. ) ;
#667 = VERTEX_POINT ( 'NONE', #714 ) ;
#668 = DIRECTION ( 'NONE',  ( 1.944716003016988085E-16, -1.047444401652940007E-14, 1.000000000000000000 ) ) ;
#669 = FACE_OUTER_BOUND ( 'NONE', #540, .T. ) ;
#670 = ORIENTED_EDGE ( 'NONE', *, *, #608, .F. ) ;
#671 = DIRECTION ( 'NONE',  ( 0.000000000000000000, -1.000000000000000000, -1.047444401652940007E-14 ) ) ;
#672 = CARTESIAN_POINT ( 'NONE',  ( 0.000000000000000000, 20.00000000000020961, -19.99999999999979394 ) ) ;
#673 = B_SPLINE_CURVE_WITH_KNOTS ( 'NONE', 3,
 ( #439, #674, #145, #168, #577, #231 ),
 .UNSPECIFIED., .F., .F.,
 ( 4, 2, 4 ),
 ( 1.165703589765697005E-20, 0.002258000430957693601, 0.004516000861915387202 ),
 .UNSPECIFIED. ) ;
#674 = CARTESIAN_POINT ( 'NONE',  ( 100.6120857711550229, -0.4590643283662446672, -3.037981075980330736 ) ) ;
#675 = EDGE_CURVE ( 'NONE', #378, #518, #91, .T. ) ;
#676 = LINE ( 'NONE', #672, #688 ) ;
#677 = EDGE_LOOP ( 'NONE', ( #509, #244, #138, #318 ) ) ;
#678 = APPROVAL_STATUS ( 'not_yet_approved' ) ;
#679 = CC_DESIGN_PERSON_AND_ORGANIZATION_ASSIGNMENT ( #447, #625, ( #21 ) ) ;
#680 = DIRECTION ( 'NONE',  ( -1.000000000000000000, 0.000000000000000000, 0.000000000000000000 ) ) ;
#681 = CYLINDRICAL_SURFACE ( 'NONE', #31, 12.49999999999999645 ) ;
#682 = CARTESIAN_POINT ( 'NONE',  ( 107.5000000000000000, 10.00000000000003197, -2.999999999999905409 ) ) ;
#683 =( NAMED_UNIT ( * ) SI_UNIT ( $, .STERADIAN. ) SOLID_ANGLE_UNIT ( ) );
#684 = LINE ( 'NONE', #651, #122 ) ;
#685 = ADVANCED_FACE ( 'NONE', ( #319 ), #558, .T. ) ;
#686 = CIRCLE ( 'NONE', #354, 2.000000000000000000 ) ;
#687 = MECHANICAL_CONTEXT ( 'NONE', #279, 'mechanical' ) ;
#688 = VECTOR ( 'NONE', #109, 1000.000000000000227 ) ;
#689 = AXIS2_PLACEMENT_3D ( 'NONE', #323, #663, #490 ) ;
#690 = DIRECTION ( 'NONE',  ( 1.000000000000000000, 0.000000000000000000, 0.000000000000000000 ) ) ;
#691 = VERTEX_POINT ( 'NONE', #81 ) ;
#692 = APPLICATION_PROTOCOL_DEFINITION ( 'international standard', 'config_control_design', 1994, #279 ) ;
#693 = CARTESIAN_POINT ( 'NONE',  ( 103.5798784080234611, 6.878336409847369382, -3.000592288049062084 ) ) ;
#694 = LOCAL_TIME ( 11, 4, 22.00000000000000000, #571 ) ;
#695 = ORIENTED_EDGE ( 'NONE', *, *, #618, .T. ) ;
#696 = PERSON_AND_ORGANIZATION ( #497, #105 ) ;
#697 = CIRCLE ( 'NONE', #236, 2.000000000000000000 ) ;
#698 = DIRECTION ( 'NONE',  ( -1.000000000000000000, 0.000000000000000000, 0.000000000000000000 ) ) ;
#699 = AXIS2_PLACEMENT_3D ( 'NONE', #418, #402, #738 ) ;
#700 = FACE_OUTER_BOUND ( 'NONE', #277, .T. ) ;
#701 = CARTESIAN_POINT ( 'NONE',  ( 5.000000000000002665, 20.00000000000005329, -4.999999999999784173 ) ) ;
#702 = DIRECTION ( 'NONE',  ( 1.000000000000000000, 2.788585725584972414E-31, -2.662275650320332403E-17 ) ) ;
#703 = CARTESIAN_POINT ( 'NONE',  ( 3.000000000000002220, 20.00000000000005329, -4.999999999999783284 ) ) ;
#704 = ORIENTED_EDGE ( 'NONE', *, *, #40, .T. ) ;
#705 = DIRECTION ( 'NONE',  ( -1.000000000000000000, 0.000000000000000000, 0.000000000000000000 ) ) ;
#706 = AXIS2_PLACEMENT_3D ( 'NONE', #381, #615, #573 ) ;
#707 = DIRECTION ( 'NONE',  ( 0.000000000000000000, -1.000000000000000000, -1.047444401652940007E-14 ) ) ;
#708 = VERTEX_POINT ( 'NONE', #262 ) ;
#709 = CARTESIAN_POINT ( 'NONE',  ( 102.5000000000000000, 10.00000000000003375, -3.099999999999905498 ) ) ;
#710 = EDGE_CURVE ( 'NONE', #562, #102, #267, .T. ) ;
#711 = DIRECTION ( 'NONE',  ( 1.000000000000000000, 0.000000000000000000, 0.000000000000000000 ) ) ;
#712 = VERTEX_POINT ( 'NONE', #437 ) ;
#713 = VERTEX_POINT ( 'NONE', #380 ) ;
#714 = CARTESIAN_POINT ( 'NONE',  ( 3.000000000000000444, 1.462980234869738094E-13, -13.96713975998204305 ) ) ;
#715 = EDGE_CURVE ( 'NONE', #355, #337, #325, .T. ) ;
#716 = FACE_OUTER_BOUND ( 'NONE', #541, .T. ) ;
#717 = EDGE_LOOP ( 'NONE', ( #314, #221, #569, #653 ) ) ;
#718 = DIRECTION ( 'NONE',  ( -0.9826241016603983747, 1.944127771292041657E-15, -0.1856067747580752436 ) ) ;
#719 = CARTESIAN_POINT ( 'NONE',  ( 102.6688994448976047, 11.33244688717332593, -3.006274136837678412 ) ) ;
#720 = VECTOR ( 'NONE', #38, 1000.000000000000000 ) ;
#721 = ORIENTED_EDGE ( 'NONE', *, *, #194, .F. ) ;
#722 = VERTEX_POINT ( 'NONE', #709 ) ;
#723 = CARTESIAN_POINT ( 'NONE',  ( 0.000000000000000000, 0.000000000000000000, 0.000000000000000000 ) ) ;
#724 = DIRECTION ( 'NONE',  ( -0.000000000000000000, 1.000000000000000000, 1.047444401652940007E-14 ) ) ;
#725 = VERTEX_POINT ( 'NONE', #216 ) ;
#726 = EDGE_CURVE ( 'NONE', #206, #430, #673, .T. ) ;
#727 = VERTEX_POINT ( 'NONE', #52 ) ;
#728 = DIRECTION ( 'NONE',  ( -1.000000000000000000, 0.000000000000000000, 2.710505431213758620E-17 ) ) ;
#729 = APPROVAL_PERSON_ORGANIZATION ( #108, #8, #744 ) ;
#730 = CARTESIAN_POINT ( 'NONE',  ( 107.5000000000000000, 10.00000000000000000, 1.012749932133403865E-13 ) ) ;
#731 = ADVANCED_FACE ( 'NONE', ( #732 ), #681, .T. ) ;
#732 = FACE_OUTER_BOUND ( 'NONE', #359, .T. ) ;
#733 = EDGE_CURVE ( 'NONE', #727, #667, #488, .T. ) ;
#734 = VECTOR ( 'NONE', #636, 1000.000000000000000 ) ;
#735 = CARTESIAN_POINT ( 'NONE',  ( 102.5332484470861516, 10.66807656168743712, -3.007577744121369356 ) ) ;
#736 = CARTESIAN_POINT ( 'NONE',  ( 0.000000000000000000, 2.094888803305880013E-13, -20.00000000000000000 ) ) ;
#737 = ORIENTED_EDGE ( 'NONE', *, *, #85, .F. ) ;
#738 = DIRECTION ( 'NONE',  ( -1.000000000000000000, 8.326672684688676025E-16, 2.662275650321264553E-17 ) ) ;
#739 = ORIENTED_EDGE ( 'NONE', *, *, #180, .T. ) ;
#740 =( NAMED_UNIT ( * ) PLANE_ANGLE_UNIT ( ) SI_UNIT ( $, .RADIAN. ) );
#741 = CARTESIAN_POINT ( 'NONE',  ( 5.371213549516150820, 20.00000000000016698, -15.93238796330263440 ) ) ;
#742 = DIRECTION ( 'NONE',  ( -0.000000000000000000, -1.047444401652940007E-14, 1.000000000000000000 ) ) ;
#743 = AXIS2_PLACEMENT_3D ( 'NONE', #259, #595, #647 ) ;
#744 = APPROVAL_ROLE ( '' ) ;
#745 = CIRCLE ( 'NONE', #416, 5.000000000000004441 ) ;
#746 = DIRECTION ( 'NONE',  ( 0.000000000000000000, -1.000000000000000000, -1.047444401652940007E-14 ) ) ;
#747 = CARTESIAN_POINT ( 'NONE',  ( 76.20149249502236444, 20.00000000000006040, -5.606384750940014428 ) ) ;
#748 = EDGE_CURVE ( 'NONE', #722, #307, #745, .T. ) ;
#749 = EDGE_LOOP ( 'NONE', ( #71, #4, #363, #379, #506, #695, #620 ) ) ;
#750 = APPROVAL_ROLE ( '' ) ;
#751 = CIRCLE ( 'NONE', #391, 2.000000000000001776 ) ;
#752 = EDGE_CURVE ( 'NONE', #712, #148, #278, .T. ) ;
#753 = LINE ( 'NONE', #576, #555 ) ;
ENDSEC;
END-ISO-10303-21;
